<svg width="33px" height="34px" viewBox="0 0 33 34" version="1.1" xmlns="http://www.w3.org/2000/svg" xmlns:xlink="http://www.w3.org/1999/xlink">
  <g id="facebook" stroke="none" stroke-width="1" fill="none" fill-rule="evenodd">
    <path d="M16.498,0 C7.401,0 0,7.402 0,16.5 C0,25.598 7.401,33 16.498,33 C25.597,33 33,25.598 33,16.5 C33,7.402 25.597,0 16.498,0 L16.498,0 Z M16.498,2.011 C24.4875,2.011 30.986,8.51 30.986,16.5 C30.986,24.4895 24.4875,30.989 16.498,30.989 C8.5125,30.989 2.014,24.4895 2.014,16.5 C2.014,8.51 8.5125,2.011 16.498,2.011 L16.498,2.011 Z" fill="#FFFFFF"></path>
    <path d="M19.934,14.027 L17.5955,14.027 L17.5955,12.495 C17.5955,11.92 17.977,11.7855 18.2465,11.7855 L19.897,11.7855 L19.897,9.2565 L17.623,9.2475 C15.1005,9.2475 14.5265,11.134 14.5265,12.341 L14.5265,14.027 L13.067,14.027 L13.067,16.6325 L14.5265,16.6325 L14.5265,24.0065 L17.5955,24.0065 L17.5955,16.6325 L19.6665,16.6325 L19.934,14.027" fill="#FFFFFF"></path>
  </g>
</svg>
