<svg width="33px" height="34px" viewBox="223 0 33 34" version="1.1" xmlns="http://www.w3.org/2000/svg" xmlns:xlink="http://www.w3.org/1999/xlink">
  <g id="Instagram" stroke="none" stroke-width="1" fill="none" fill-rule="evenodd" transform="translate(223.000000, 0.000000)">
    <path d="M16.498,0 C7.401,0 0,7.402 0,16.5 C0,25.598 7.401,33 16.498,33 C25.597,33 33,25.598 33,16.5 C33,7.402 25.597,0 16.498,0 L16.498,0 Z M16.498,2.011 C24.4875,2.011 30.986,8.51 30.986,16.5 C30.986,24.4895 24.4875,30.989 16.498,30.989 C8.5125,30.989 2.014,24.4895 2.014,16.5 C2.014,8.51 8.5125,2.011 16.498,2.011 L16.498,2.011 Z" id="Fill-1" fill="#FFFFFF"></path>
    <path d="M22.0655,20.9515 C22.0655,21.68 21.4715,22.2735 20.7405,22.2735 L12.2605,22.2735 C11.531,22.2735 10.9365,21.68 10.9365,20.9515 L10.9365,15.3 L12.999,15.3 C12.821,15.738 12.7225,16.216 12.7225,16.717 C12.7225,18.797 14.417,20.492 16.501,20.492 C18.584,20.492 20.28,18.797 20.28,16.717 C20.28,16.216 20.179,15.738 20.001,15.3 L22.0655,15.3 L22.0655,20.9515 L22.0655,20.9515 Z M14.528,15.3 C14.97,14.688 15.6885,14.2875 16.501,14.2875 C17.3125,14.2875 18.031,14.688 18.4735,15.3 C18.761,15.6995 18.934,16.1875 18.934,16.717 C18.934,18.0575 17.8425,19.1455 16.501,19.1455 C15.1585,19.1455 14.068,18.0575 14.068,16.717 C14.068,16.1875 14.24,15.6995 14.528,15.3 L14.528,15.3 Z M21.5065,11.407 L21.8135,11.405 L21.8135,13.7455 L19.477,13.752 L19.47,11.413 L21.5065,11.407 L21.5065,11.407 Z M20.7405,9.8165 L12.2605,9.8165 C10.787,9.8165 9.5895,11.0115 9.5895,12.4835 L9.5895,20.9515 C9.5895,22.4225 10.787,23.6185 12.2605,23.6185 L20.7405,23.6185 C22.2145,23.6185 23.4115,22.4225 23.4115,20.9515 L23.4115,12.4835 C23.4115,11.0115 22.2145,9.8165 20.7405,9.8165 L20.7405,9.8165 Z" id="Fill-4" fill="#FFFFFF"></path>
  </g>
</svg>
