<svg width="40px" height="40px" viewBox="0 0 30 40" version="1.1" xmlns="http://www.w3.org/2000/svg" xmlns:xlink="http://www.w3.org/1999/xlink">
  <defs>
    <radialGradient cx="11.2371377%" cy="22.445886%" fx="11.2371377%" fy="22.445886%" r="138.013645%" id="radialGradient-1">
      <stop stop-color="#42B4F3" stop-opacity="0.9804" offset="0%"></stop>
      <stop stop-color="#003A80" offset="100%"></stop>
    </radialGradient>
    <radialGradient cx="86.9254535%" cy="42.5123278%" fx="86.9254535%" fy="42.5123278%" r="83.7503688%" id="radialGradient-2">
      <stop stop-color="#5BC0FF" stop-opacity="0.9804" offset="0%"></stop>
      <stop stop-color="#003789" offset="100%"></stop>
    </radialGradient>
    <radialGradient cx="71.1760154%" cy="27.916907%" fx="71.1760154%" fy="27.916907%" r="134.814611%" id="radialGradient-3">
      <stop stop-color="#5FC7FF" offset="0%"></stop>
      <stop stop-color="#003785" stop-opacity="0.9804" offset="100%"></stop>
    </radialGradient>
    <radialGradient cx="46.7925858%" cy="19.8566318%" fx="46.7925858%" fy="19.8566318%" r="113.676922%" id="radialGradient-4">
      <stop stop-color="#EC0A1C" offset="0%"></stop>
      <stop stop-color="#BB0E15" offset="100%"></stop>
    </radialGradient>
    <radialGradient cx="29.8243147%" cy="20.3845518%" fx="29.8243147%" fy="20.3845518%" r="162.326387%" id="radialGradient-5">
      <stop stop-color="#EC0A1C" offset="0%"></stop>
      <stop stop-color="#9E0D18" offset="100%"></stop>
    </radialGradient>
    <linearGradient x1="91.0824873%" y1="100.995852%" x2="31.1243655%" y2="-0.025896861%" id="linearGradient-6">
      <stop stop-color="#320000" offset="0%"></stop>
      <stop stop-color="#5D0000" offset="100%"></stop>
    </linearGradient>
    <radialGradient cx="94.0234998%" cy="91.8759156%" fx="94.0234998%" fy="91.8759156%" r="201.584011%" id="radialGradient-7">
      <stop stop-color="#003789" offset="0%"></stop>
      <stop stop-color="#5FC7FF" stop-opacity="0.9804" offset="100%"></stop>
    </radialGradient>
  </defs>
  <g id="Swisscom_Lifeform" stroke="none" stroke-width="1" fill="none" fill-rule="evenodd">
    <path d="M8.34031414,32.8249027 C8.70157068,33.151751 9.07853403,33.463035 9.47120419,33.7431907 C9.7382199,33.9299611 10.0209424,34.1167315 10.3036649,34.2879377 C10.6806283,34.5214008 11.0732984,34.7392996 11.4659686,34.9416342 C12,35.2217899 12.8481675,35.5953307 13.382199,35.8132296 C13.2722513,35.6420233 13.1937173,35.5330739 13.0837696,35.3463035 C12.8167539,35.0505837 12.565445,34.7548638 12.3298429,34.3501946 C12.1413613,34.0233463 11.9528796,33.6342412 11.7801047,33.1050584 C11.6701571,32.7782101 11.5445026,32.4046693 11.434555,32 C11.3560209,31.7198444 11.2774869,31.4241245 11.2146597,31.0972763 C11.1989529,31.0350195 11.1518325,30.8015564 11.1361257,30.7392996 C11.0732984,30.4124514 11.0104712,30.1167315 10.9319372,29.8210117 C10.8691099,29.5252918 10.7905759,29.2451362 10.6963351,28.9649805 C10.539267,28.5136187 10.382199,28.0933852 10.1937173,27.688716 C9.97382199,27.1906615 9.7382199,26.7237354 9.47120419,26.3035019 C9.29842932,26.0233463 8.85863874,25.4319066 8.65445026,25.1828794 C8.4973822,24.9961089 8.37172775,24.8404669 8.23036649,24.6848249 C8.12041885,24.5758755 8.0104712,24.4513619 7.88481675,24.2957198 C7.72774869,24.1245136 7.55497382,23.9533074 7.39790576,23.7976654 C7.38219895,23.7821012 7.39790576,23.7976654 7.36649215,23.8132296 C7.03664921,24.233463 6.7382199,24.6536965 6.48691099,25.1050584 C6.28272251,25.463035 6.10994764,25.8365759 5.98429319,26.2256809 C5.90575916,26.4435798 5.85863874,26.6614786 5.81151832,26.8949416 C5.76439791,27.1284047 5.7486911,27.3618677 5.73298429,27.5953307 C5.71727749,27.8910506 5.73298429,28.1867704 5.78010471,28.4980545 C5.82722513,28.8093385 5.90575916,29.1361868 6.03141361,29.4785992 C6.17277487,29.8677043 6.36125654,30.2568093 6.59685864,30.6614786 C6.62827225,30.7081712 6.65968586,30.770428 6.69109948,30.8171206 C7.11518325,31.5642023 7.69633508,32.2178988 8.34031414,32.8249027 L8.34031414,32.8249027 Z" id="Shape" fill="url(#radialGradient-1)"></path>
    <path d="M13.382199,39.8910506 C14.104712,39.8287938 14.8743455,39.7354086 15.6596859,39.5953307 C16.6335079,39.4241245 17.6230366,39.1750973 18.6282723,38.8638132 C19.4764398,38.5992218 20.3089005,38.2879377 21.1413613,37.9299611 C21.8795812,37.6031128 22.6020942,37.2451362 23.2931937,36.8560311 C24.1884817,36.3424125 25.052356,35.7509728 25.8219895,35.0972763 C26.7172775,34.3346304 27.5026178,33.4941634 28.1465969,32.5603113 C28.8219895,31.5797665 29.3246073,30.4902724 29.6387435,29.307393 C29.8115183,28.6536965 29.9057592,27.9844358 29.9371728,27.2684825 C29.9685864,26.4747082 29.8900524,25.7120623 29.7015707,24.9649805 C29.4502618,23.9688716 29.0104712,23.0038911 28.4136126,22.0700389 C27.6753927,20.8871595 26.6858639,19.7509728 25.5549738,18.6459144 C24.408377,17.5097276 23.104712,16.4046693 21.7225131,15.2840467 C20.8743455,14.5992218 20.0104712,13.9143969 19.1308901,13.2140078 C18.4554974,12.6848249 17.7801047,12.1400778 17.0890052,11.5797665 C16.3350785,10.9571984 15.5811518,10.3346304 14.8429319,9.69649805 C14.1989529,9.12062257 13.5706806,8.56031128 12.9581152,7.9844358 C12.7539267,7.79766537 12.565445,7.59533074 12.3612565,7.40856031 C11.7329843,6.78599222 11.1204188,6.11673152 10.4764398,5.36964981 C10.8376963,5.89883268 11.4031414,6.692607 11.9528796,7.50194553 C12.3298429,8.07782101 12.7068063,8.6536965 12.973822,9.16731518 C13.0994764,9.40077821 13.1937173,9.63424125 13.2722513,9.83657588 C13.3350785,10.0233463 13.382199,10.1789883 13.382199,10.3190661 L13.382199,11.0505837 L13.382199,16.9805447 L13.382199,21.8988327 L13.382199,28.2645914 L13.382199,36.0466926 C13.382199,38.1322957 13.382199,39.8910506 13.382199,39.8910506 L13.382199,39.8910506 Z" id="Shape" fill="url(#radialGradient-2)"></path>
    <path d="M13.382199,35.8132296 C13.382199,35.8132296 14.7329843,34.2412451 15.1099476,33.7898833 C15.3612565,33.4941634 15.9267016,32.7782101 16.460733,32.0933852 C16.9790576,31.4241245 17.4659686,30.7859922 17.6230366,30.5836576 C17.6858639,30.4902724 18.5340314,29.2918288 18.6125654,29.1828794 C19.0209424,28.6070039 18.7225131,29.0116732 18.9581152,28.7159533 C19.052356,28.5758755 19.0994764,28.5447471 19.6963351,27.6420233 C19.7591623,27.5486381 19.8691099,27.3618677 19.9633508,27.2217899 C20.0104712,27.1284047 20.513089,26.3346304 20.5602094,26.2723735 C20.6544503,26.1167315 20.7486911,25.9610895 20.8272251,25.8210117 C21.0628272,25.4007782 21.2356021,25.07393 21.4240838,24.7315175 C21.8481675,23.9533074 22.0680628,23.5797665 22.4450262,22.7548638 C22.7120419,22.1789883 23.0104712,21.5097276 23.1989529,21.0116732 C23.3403141,20.6692607 23.5445026,20.1245136 23.6387435,19.8287938 C23.7172775,19.6264591 23.8900524,19.0817121 24,18.7392996 C24.1884817,18.1011673 24.2984293,17.6809339 24.3298429,17.5097276 C24.3455497,17.4474708 24.2356021,17.0428016 24.2356021,17.0428016 C23.7958115,16.6692607 23.1832461,16.1400778 22.7748691,15.8132296 C22.617801,15.6731518 21.3926702,14.6770428 21.1884817,14.5058366 C20.4031414,13.8677043 19.2565445,12.9494163 18.4240838,12.2801556 C17.5602094,11.5953307 17.026178,11.1595331 16.2251309,10.5058366 C13.3036649,8.12451362 11.8743455,6.52140078 10.3350785,5.13618677 C11.104712,6.86381323 13.0680628,9.3385214 13.0680628,11.0505837 L13.0680628,13.3229572 L13.0680628,16.155642 L13.0680628,19.3618677 L13.0680628,22.8949416 L13.0680628,25.5875486 L13.0680628,26.6303502 L13.0680628,35.3307393 C13.0680628,35.3463035 13.1780105,35.5019455 13.382199,35.8132296 L13.382199,35.8132296 Z" id="Shape" fill="url(#radialGradient-3)"></path>
    <path d="M15.2984293,10.0856031 C15.4397906,10.2101167 15.5497382,10.3035019 15.8795812,10.5680934 C16.0209424,10.6770428 16.3664921,10.9727626 16.4921466,11.0817121 C16.7434555,11.2840467 17.6544503,12.0155642 17.7486911,12.1089494 C17.7801047,12.1400778 17.8429319,12.1867704 17.921466,12.2490272 C18.4397906,12.6692607 19.7905759,13.7431907 20.1989529,14.0700389 C20.1989529,14.0700389 20.2146597,14.0856031 20.2460733,14.1167315 C20.5602094,14.3657588 22.1308901,15.6264591 22.9162304,16.2801556 C23.6387435,16.8871595 24.2670157,17.463035 24.3298429,17.5097276 C24.486911,16.7937743 24.5968586,16.0933852 24.6753927,15.4396887 C24.7696335,14.5214008 24.7853403,13.6498054 24.7068063,12.8560311 C24.5968586,11.4863813 24.2513089,10.2879377 23.7643979,9.24513619 C23.2774869,8.20233463 22.6335079,7.3307393 21.895288,6.59922179 C21.8167539,6.52140078 21.7382199,6.44357977 21.6596859,6.38132296 C21.2198953,5.9766537 20.7643979,5.61867704 20.2617801,5.307393 C19.7748691,4.99610895 19.2565445,4.73151751 18.7225131,4.49805447 C17.7643979,4.10894942 16.8062827,3.87548638 15.9424084,3.81322957 C14.8900524,3.73540856 13.9162304,3.90661479 13.2879581,4.24902724 C13.1623037,4.31128405 13.052356,4.35797665 13.052356,4.35797665 L13.052356,5.86770428 L13.052356,8.10894942 C13.0837696,8.14007782 13.3507853,8.37354086 13.3507853,8.38910506 C13.8219895,8.82490272 14.3874346,9.3385214 14.6701571,9.58754864 C14.9057592,9.74319066 15.0942408,9.91439689 15.2984293,10.0856031 L15.2984293,10.0856031 Z" id="Shape" fill="url(#radialGradient-4)"></path>
    <path d="M11.2617801,32.5136187 C11.3089005,32.6848249 11.3717277,32.8715953 11.434555,33.0428016 C11.5287958,33.307393 11.6230366,33.5564202 11.7172775,33.8210117 C11.8900524,34.2101167 12.078534,34.5992218 12.3298429,34.9416342 C12.5183246,35.2062257 12.7382199,35.4396887 13.0052356,35.6264591 C13.1151832,35.7042802 13.2408377,35.766537 13.382199,35.8287938 L13.382199,28.6848249 C13.382199,28.6848249 13.3036649,28.6692607 13.2408377,28.6536965 C13.1780105,28.6381323 13.0837696,28.6070039 13.0837696,28.6070039 L13.0837696,19.766537 L13.0837696,12.077821 L13.0837696,11.0817121 C13.0837696,10.6614786 13.382199,10.3190661 13.382199,10.3190661 C13.382199,10.3346304 13.382199,10.3190661 13.382199,10.3190661 C13.382199,10.1945525 13.3193717,9.9766537 13.2879581,9.88326848 C13.1780105,9.58754864 13.0366492,9.29182879 12.895288,9.01167315 C12.8010471,8.85603113 12.895288,9.01167315 12.8010471,8.85603113 C12.5497382,8.45136187 12.1099476,7.71984436 11.8429319,7.3307393 C11.4502618,6.73929961 11.5287958,6.86381323 11.1361257,6.28793774 C10.9947644,6.08560311 10.7120419,5.66536965 10.5706806,5.44747082 C10.3664921,5.13618677 10.0837696,4.10894942 9.94240838,3.76653696 C9.51832461,4.07782101 8.85863874,4.57587549 8.43455497,4.88715953 C7.42931937,5.61867704 6.40837696,6.35019455 5.43455497,7.11284047 C4.79057592,7.61089494 4.16230366,8.14007782 3.54973822,8.70038911 C2.98429319,9.21400778 2.38743455,9.78988327 1.86910995,10.4124514 C0.895287958,11.5642023 0.12565445,12.9027237 0.0157068063,14.3968872 C1.07873779e-14,14.6459144 1.07873779e-14,14.8949416 0.0157068063,15.1284047 C0.0314136126,15.3929961 0.0628272251,15.6420233 0.12565445,15.8910506 C0.314136126,16.8404669 0.738219895,17.6653696 1.28795812,18.381323 C1.90052356,19.1906615 2.67015707,19.9066148 3.45549738,20.5914397 C3.59685864,20.7003891 3.72251309,20.8249027 3.86387435,20.9338521 C4.79057592,21.7276265 5.73298429,22.5058366 6.61256545,23.3463035 C7.88481675,24.5603113 9.04712042,25.9143969 9.86387435,27.5797665 C10.539267,29.151751 10.7591623,30.8638132 11.2617801,32.5136187 L11.2617801,32.5136187 Z" id="Shape" fill="url(#radialGradient-5)"></path>
    <path d="M13.382199,10.3035019 L13.382199,10.3035019 C12.3926702,10.4280156 11.7329843,10.9883268 11.3403141,11.8754864 C10.9790576,12.6692607 10.7905759,13.5564202 10.2565445,14.2723735 C9.15706806,15.766537 6.29842932,15.4241245 5.85863874,17.4785992 C5.21465969,20.4980545 9.18848168,21.1361868 10.3507853,23.2373541 C11.2146597,24.7782101 10.7905759,27.1906615 12.4240838,28.2801556 C12.6753927,28.4513619 12.9581152,28.5603113 13.2408377,28.6381323 C13.3507853,28.6692607 13.3664921,28.6692607 13.3979058,28.6692607 C13.382199,28.6536965 13.382199,10.3035019 13.382199,10.3035019 L13.382199,10.3035019 Z" id="Shape" fill="#FFFFFF"></path>
    <path d="M13.382199,28.6692607 C13.3350785,28.6536965 13.2879581,28.6536965 13.2251309,28.6381323 C12.9424084,28.5603113 12.6596859,28.4513619 12.408377,28.2801556 C10.7748691,27.1906615 11.1989529,24.7782101 10.3350785,23.2373541 C10.0680628,22.7548638 9.62827225,22.3346304 9.15706806,21.9610895 C9.14136126,21.9455253 9.12565445,21.9299611 9.10994764,21.9299611 C8.92146597,22.1167315 8.63874346,22.4124514 8.18324607,22.8638132 C7.66492147,23.3774319 7.19371728,23.9844358 7.19371728,23.9844358 L7.19371728,23.9844358 C8.21465969,25.0272374 9.10994764,26.1945525 9.78534031,27.5797665 C10.5863874,29.3229572 10.7905759,31.2373541 11.4031414,33.0583658 C11.6230366,33.7276265 11.9057592,34.3968872 12.3141361,34.9571984 C12.5811518,35.3151751 12.895288,35.6264591 13.3664921,35.8132296 L13.3664921,28.7470817 L13.3664921,28.6692607 L13.382199,28.6692607 L13.382199,28.6692607 L13.382199,28.6692607 Z" id="Shape" fill="url(#linearGradient-6)"></path>
    <path d="M11.4659686,6.45914397 C11.6387435,6.6459144 11.8586387,6.87937743 12.0628272,7.08171206 C12.3141361,7.3307393 12.5340314,7.56420233 12.8167539,7.82879377 C12.9895288,8 13.2094241,8.20233463 13.3979058,8.37354086 L13.3979058,5.82101167 L13.3979058,2.92607004 L13.3979058,0.124513619 C13.2722513,0.093385214 13.0680628,0.0778210117 12.8167539,0.093385214 C12.408377,0.108949416 11.8743455,0.20233463 11.3560209,0.389105058 C10.947644,0.544747082 10.539267,0.747081712 10.2094241,1.02723735 C9.83246073,1.3385214 9.56544503,1.74319066 9.45549738,2.24124514 C9.34554974,2.77042802 9.42408377,3.40856031 9.78534031,4.17120623 C9.95811518,4.52918288 10.2251309,4.99610895 10.4764398,5.3385214 C10.4921466,5.3540856 10.6806283,5.57198444 10.7905759,5.69649805 C10.9790576,5.94552529 11.2146597,6.21011673 11.4659686,6.45914397 L11.4659686,6.45914397 Z" id="Shape" fill="url(#radialGradient-7)"></path>
  </g>
</svg>
