<svg width="103px" height="40px" viewBox="0 0 103 40" version="1.1" xmlns="http://www.w3.org/2000/svg" xmlns:xlink="http://www.w3.org/1999/xlink">
<rect id="Rectangle" stroke="none" fill="none" x="0" y="0" width="103" height="40"></rect>
<path d="M55.6688087,16.3874691 C54.9698468,16.1378398 53.871478,15.8382847 52.9728127,15.8382847 C51.9243697,15.8382847 51.1255561,16.087914 51.1255561,17.0365052 C51.1255561,19.2332427 56.8670292,17.8852447 56.8670292,22.4784231 C56.8670292,25.573826 54.3707365,26.7720465 51.5249629,26.7720465 C50.2268908,26.7720465 48.9288186,26.5723431 47.7305981,26.2228621 L47.9303015,23.526866 C47.9303015,23.526866 49.7775581,24.1759021 51.3751854,24.1759021 C52.4735541,24.1759021 53.3722195,23.8264212 53.3722195,22.87783 C53.3722195,20.481389 47.6307464,22.0290905 47.6307464,17.4858379 C47.6307464,14.6400643 50.0271873,13.4917696 52.6732575,13.4917696 C54.220959,13.4917696 55.5190311,13.7913248 56.2679189,14.040954 L55.6688087,16.3874691 L55.6688087,16.3874691 Z M45.2343055,16.3874691 C44.4854177,16.1378398 43.4369748,15.8382847 42.5383094,15.8382847 C41.4898665,15.8382847 40.6910529,16.087914 40.6910529,17.0365052 C40.6910529,19.2332427 46.432526,17.8852447 46.432526,22.4784231 C46.432526,25.573826 43.8863075,26.7720465 41.0904597,26.7720465 C39.7923875,26.7720465 38.4943154,26.5723431 37.2461691,26.2228621 L37.4957983,23.526866 C37.4957983,23.526866 39.3929807,24.1759021 40.9406822,24.1759021 C41.9891251,24.1759021 42.9377163,23.8264212 42.9377163,22.87783 C42.9377163,20.481389 37.1962432,22.0290905 37.1962432,17.4858379 C37.1962432,14.6400643 39.64261,13.4917696 42.2387543,13.4917696 C43.7864558,13.4917696 45.0845279,13.7913248 45.8833416,14.040954 L45.2343055,16.3874691 L45.2343055,16.3874691 Z M98.0558576,13.3419921 C100.55215,13.3419921 102,14.6899901 102,17.6356154 L102,26.4724913 L98.7048937,26.4724913 L98.7048937,18.2846515 C98.7048937,16.9366535 98.3054869,16.087914 96.907563,16.087914 C95.5096391,16.087914 94.2614928,17.3360603 94.2614928,19.5327978 L94.2614928,26.4724913 L91.0163124,26.4724913 L91.0163124,18.2846515 C91.0163124,17.0365052 90.6169056,16.087914 89.2189817,16.087914 C87.7212061,16.087914 86.5729115,17.435912 86.5729115,19.6825754 L86.5729115,26.4724913 L83.2278794,26.4724913 L83.2278794,13.6415472 C85.4246169,13.3919179 86.2733564,14.2905833 86.3232823,15.6885072 C87.1220959,14.2406574 88.5200198,13.3419921 90.3173505,13.3419921 C92.6139397,13.3419921 93.5625309,14.6400643 93.862086,15.8382847 C94.4611962,14.5402126 95.8591201,13.3419921 98.0558576,13.3419921 L98.0558576,13.3419921 L98.0558576,13.3419921 Z M30.4562531,13.5916214 C29.7572912,17.3859862 27.9100346,23.4270143 26.7118141,26.4225655 L23.2170044,26.4225655 L20.7706377,17.8353188 L20.7207118,17.8353188 L18.274345,26.4225655 L14.7795353,26.4225655 C13.6811666,23.4270143 11.6342066,17.2362086 11.0350964,13.5916214 L14.3302027,13.5916214 L16.5269402,22.4284973 L16.576866,22.4284973 L19.1730104,13.5916214 L22.4681167,13.5916214 L25.0143351,22.3785714 L25.064261,22.3785714 L27.2609985,13.5916214 L30.4562531,13.5916214 L30.4562531,13.5916214 Z M9.03806228,16.3874691 C8.33910035,16.1378398 7.24073159,15.8382847 6.34206624,15.8382847 C5.29362333,15.8382847 4.54473554,16.087914 4.54473554,17.0365052 C4.54473554,19.2332427 10.2362827,17.8852447 10.2362827,22.4784231 C10.2362827,25.573826 7.73999011,26.7720465 4.89421651,26.7720465 C3.59614434,26.7720465 2.29807217,26.5723431 1.09985171,26.2228621 L1.29955512,23.526866 C1.29955512,23.526866 3.19673752,24.1759021 4.74443895,24.1759021 C5.84280771,24.1759021 6.74147306,23.8264212 6.74147306,22.87783 C6.74147306,20.481389 1,22.0290905 1,17.4858379 C1,14.6400643 3.39644093,13.4917696 6.04251112,13.4917696 C7.59021256,13.4917696 8.88828473,13.7913248 9.63717252,14.040954 L9.03806228,16.3874691 L9.03806228,16.3874691 Z M74.9901137,26.7221206 C71.3455264,26.7221206 68.799308,24.7250865 68.799308,20.2317598 C68.799308,16.2376915 71.495304,13.3419921 75.3895205,13.3419921 C79.0341078,13.3419921 81.3806228,15.3889521 81.3806228,19.7325012 C81.3806228,23.9262729 78.8344043,26.7221206 74.9901137,26.7221206 L74.9901137,26.7221206 L74.9901137,26.7221206 Z M75.1398913,16.1877657 C73.6421157,16.1877657 72.2441918,17.2861345 72.2441918,20.1319081 C72.2441918,22.5782748 73.1428571,23.9262729 75.0899654,23.9262729 C76.7375185,23.9262729 77.9856649,22.5782748 77.9856649,19.9821305 C77.9856649,17.4858379 77.0869995,16.1877657 75.1398913,16.1877657 L75.1398913,16.1877657 L75.1398913,16.1877657 Z M31.9540287,26.4724913 L35.2491349,26.4724913 L35.2491349,13.6415472 C33.7014335,13.4917696 31.9540287,13.8911765 31.9540287,16.3375433 L31.9540287,26.4724913 L31.9540287,26.4724913 Z M33.7513594,11.9939941 C34.899654,11.9939941 35.8482452,11.0953287 35.8482452,9.94703411 C35.8482452,8.84866535 34.899654,7.95 33.7513594,7.95 C32.6529906,7.95 31.7043994,8.7987395 31.7043994,9.94703411 C31.7043994,11.0953287 32.6529906,11.9939941 33.7513594,11.9939941 L33.7513594,11.9939941 L33.7513594,11.9939941 Z M64.5056846,26.6721948 C60.7113198,26.6721948 58.2150272,24.7750124 58.2150272,20.2317598 C58.2150272,16.3874691 60.3618389,13.3919179 65.054869,13.3919179 C66.0533861,13.3919179 67.3514582,13.5916214 68.2001977,13.9411023 L67.5012358,16.6370984 C66.752348,16.3874691 66.0034602,16.1877657 65.1547207,16.1877657 C62.7582798,16.1877657 61.7597627,17.7354671 61.7597627,20.1319081 C61.7597627,22.4284973 62.6584281,23.9262729 65.0049432,23.9262729 C66.1033119,23.9262729 66.8521997,23.6766436 67.6010875,23.3770885 L68.0004943,26.0231587 C67.3015324,26.3726396 65.9535344,26.6721948 64.5056846,26.6721948 L64.5056846,26.6721948 Z" id="Wordmark" stroke="none" fill="#001155" fill-rule="evenodd"></path>
</svg>
