<svg width="33px" height="34px" viewBox="55 0 33 34" version="1.1" xmlns="http://www.w3.org/2000/svg" xmlns:xlink="http://www.w3.org/1999/xlink">
  <g id="Twitter" stroke="none" stroke-width="1" fill="none" fill-rule="evenodd" transform="translate(55.000000, 0.000000)">
    <path d="M16.498,0 C7.401,0 0,7.402 0,16.5 C0,25.598 7.401,33 16.498,33 C25.597,33 33,25.598 33,16.5 C33,7.402 25.597,0 16.498,0 L16.498,0 Z M16.498,2.011 C24.4875,2.011 30.986,8.51 30.986,16.5 C30.986,24.4895 24.4875,30.989 16.498,30.989 C8.5125,30.989 2.014,24.4895 2.014,16.5 C2.014,8.51 8.5125,2.011 16.498,2.011 L16.498,2.011 Z" id="Fill-1" fill="#FFFFFF"></path>
    <path d="M24.1195,12.4745 C23.5915,12.7085 23.022,12.8685 22.424,12.939 C23.035,12.5745 23.503,11.9965 23.7225,11.309 C23.152,11.646 22.5205,11.8925 21.85,12.023 C21.31,11.4505 20.544,11.093 19.695,11.093 C18.0655,11.093 16.744,12.4115 16.744,14.04 C16.744,14.27 16.7705,14.4955 16.8215,14.7115 C14.368,14.589 12.1945,13.4155 10.738,11.632 C10.4855,12.067 10.34,12.574 10.34,13.114 C10.34,14.136 10.86,15.038 11.6515,15.566 C11.168,15.5515 10.7135,15.419 10.316,15.1975 C10.3145,15.2105 10.3145,15.2235 10.3145,15.234 C10.3145,16.662 11.331,17.853 12.6825,18.124 C12.4345,18.193 12.174,18.2285 11.9045,18.2285 C11.7135,18.2285 11.5295,18.2095 11.35,18.1755 C11.7255,19.346 12.815,20.1985 14.1055,20.221 C13.0965,21.0105 11.824,21.482 10.441,21.482 C10.202,21.482 9.968,21.468 9.738,21.4425 C11.044,22.277 12.594,22.765 14.2615,22.765 C19.6885,22.765 22.6555,18.2745 22.6555,14.3815 C22.6555,14.254 22.6535,14.1275 22.6475,14.0005 C23.225,13.5855 23.725,13.066 24.1195,12.4745" id="Fill-4" fill="#FFFFFF"></path>
  </g>
</svg>
