<svg width="33px" height="34px" viewBox="110 0 33 34" version="1.1" xmlns="http://www.w3.org/2000/svg" xmlns:xlink="http://www.w3.org/1999/xlink">
  <g id="YouTube" stroke="none" stroke-width="1" fill="none" fill-rule="evenodd" transform="translate(110.000000, 0.000000)">
    <path d="M16.498,0 C7.401,0 0,7.402 0,16.5 C0,25.598 7.401,33 16.498,33 C25.597,33 33,25.598 33,16.5 C33,7.402 25.597,0 16.498,0 L16.498,0 Z M16.498,2.011 C24.4875,2.011 30.9855,8.51 30.9855,16.5 C30.9855,24.4895 24.4875,30.989 16.498,30.989 C8.5125,30.989 2.014,24.4895 2.014,16.5 C2.014,8.51 8.5125,2.011 16.498,2.011 L16.498,2.011 Z" id="Fill-1" fill="#FFFFFF"></path>
    <path d="M21.3965,20.2435 L20.021,20.2435 L20.021,20.919 C20.021,21.1075 20.0445,21.24 20.0915,21.314 C20.1395,21.3865 20.2215,21.422 20.3355,21.422 C20.4545,21.422 20.538,21.3915 20.5855,21.3295 C20.6315,21.2665 20.657,21.13 20.657,20.919 L20.657,20.756 L21.3965,20.756 L21.3965,20.9405 C21.3965,21.309 21.307,21.586 21.125,21.7725 C20.947,21.958 20.6775,22.0505 20.3185,22.0505 C19.996,22.0505 19.7425,21.952 19.5575,21.755 C19.3745,21.5585 19.2805,21.2865 19.2805,20.9405 L19.2805,19.328 C19.2805,19.017 19.3825,18.7615 19.586,18.566 C19.7895,18.3695 20.0515,18.2725 20.373,18.2725 C20.7025,18.2725 20.955,18.363 21.131,18.5435 C21.308,18.726 21.3965,18.9875 21.3965,19.328 L21.3965,20.2435 L21.3965,20.2435 Z M18.9035,21.2105 C18.9035,21.464 18.8475,21.6585 18.7345,21.796 C18.6225,21.9315 18.458,21.9985 18.2455,21.9985 C18.105,21.9985 17.979,21.9725 17.87,21.9195 C17.761,21.8685 17.6565,21.788 17.562,21.677 L17.562,21.952 L16.8355,21.952 L16.8355,17.085 L17.562,17.085 L17.562,18.6525 C17.6595,18.5435 17.764,18.46 17.87,18.403 C17.981,18.345 18.0905,18.3185 18.2025,18.3185 C18.4305,18.3185 18.6035,18.3935 18.7235,18.5465 C18.8445,18.6995 18.9035,18.9235 18.9035,19.217 L18.9035,21.2105 L18.9035,21.2105 Z M16.2955,21.952 L15.5775,21.952 L15.5775,21.5585 C15.443,21.7045 15.3055,21.8145 15.1625,21.8905 C15.019,21.968 14.8795,22.0055 14.744,22.0055 C14.5775,22.0055 14.4535,21.952 14.369,21.844 C14.2855,21.737 14.243,21.578 14.243,21.364 L14.243,18.362 L14.961,18.362 L14.961,21.1155 C14.961,21.201 14.977,21.262 15.0055,21.3 C15.037,21.3395 15.086,21.357 15.154,21.357 C15.206,21.357 15.273,21.3325 15.3545,21.2815 C15.435,21.2315 15.509,21.1675 15.5775,21.089 L15.5775,18.362 L16.2955,18.362 L16.2955,21.952 L16.2955,21.952 Z M13.9275,17.7925 L13.088,17.7925 L13.088,21.952 L12.279,21.952 L12.279,17.7925 L11.441,17.7925 L11.441,17.085 L13.9275,17.085 L13.9275,17.7925 L13.9275,17.7925 Z M21.0495,16.17 L12.033,16.17 C10.599,16.17 9.437,17.332 9.437,18.7625 L9.437,20.8455 C9.437,22.277 10.599,23.439 12.033,23.439 L21.0495,23.439 C22.483,23.439 23.6455,22.277 23.6455,20.8455 L23.6455,18.7625 C23.6455,17.332 22.483,16.17 21.0495,16.17 L21.0495,16.17 Z" id="Fill-4" fill="#FFFFFF"></path>
    <path d="M20.3415,18.9 C20.226,18.9 20.1465,18.9325 20.0955,18.999 C20.0455,19.062 20.021,19.17 20.021,19.3215 L20.021,19.6835 L20.657,19.6835 L20.657,19.3215 C20.657,19.17 20.6315,19.062 20.5815,18.999 C20.532,18.9325 20.4515,18.9 20.3415,18.9" id="Fill-5" fill="#FFFFFF"></path>
    <path d="M17.863,18.8885 C17.812,18.8885 17.762,18.899 17.712,18.9225 C17.6605,18.946 17.6115,18.9835 17.562,19.0325 L17.562,21.2695 C17.6215,21.3265 17.678,21.372 17.7325,21.3975 C17.7885,21.422 17.8455,21.4365 17.9075,21.4365 C17.995,21.4365 18.059,21.411 18.1,21.359 C18.1425,21.309 18.163,21.2265 18.163,21.1125 L18.163,19.2575 C18.163,19.136 18.1385,19.0445 18.0875,18.9805 C18.0345,18.9185 17.9605,18.8885 17.863,18.8885" id="Fill-6" fill="#FFFFFF"></path>
    <polyline id="Fill-7" fill="#FFFFFF" points="13.212 14.923 14.1245 14.923 14.1245 12.6985 15.1845 9.561 14.259 9.561 13.6955 11.7035 13.6385 11.7035 13.046 9.561 12.1275 9.561 13.212 12.7985 13.212 14.923"></polyline>
    <path d="M16.084,11.8415 C16.084,11.756 16.1145,11.686 16.1755,11.632 C16.2385,11.579 16.317,11.5535 16.4165,11.5535 C16.524,11.5535 16.6095,11.579 16.677,11.632 C16.742,11.686 16.7755,11.756 16.7755,11.8415 L16.7755,13.997 C16.7755,14.103 16.743,14.1875 16.678,14.247 C16.613,14.308 16.5255,14.3375 16.4165,14.3375 C16.3105,14.3375 16.2265,14.309 16.1685,14.248 C16.1115,14.189 16.084,14.106 16.084,13.997 L16.084,11.8415 L16.084,11.8415 Z M16.4195,15.023 C16.7865,15.023 17.0745,14.9265 17.285,14.7345 C17.4945,14.541 17.5995,14.2765 17.5995,13.938 L17.5995,11.8945 C17.5995,11.594 17.4925,11.3455 17.28,11.154 C17.0645,10.9635 16.7915,10.868 16.455,10.868 C16.088,10.868 15.794,10.9585 15.5775,11.139 C15.3595,11.321 15.251,11.5645 15.251,11.8715 L15.251,13.922 C15.251,14.258 15.3575,14.524 15.568,14.7245 C15.7815,14.923 16.0655,15.023 16.4195,15.023 L16.4195,15.023 Z" id="Fill-8" fill="#FFFFFF"></path>
    <path d="M18.821,14.9805 C18.9725,14.9805 19.128,14.9375 19.289,14.854 C19.4525,14.7695 19.6075,14.646 19.756,14.485 L19.756,14.923 L20.5655,14.923 L20.5655,10.967 L19.756,10.967 L19.756,13.97 C19.6805,14.0565 19.597,14.1265 19.5065,14.1825 C19.415,14.2385 19.34,14.266 19.2805,14.266 C19.2045,14.266 19.1485,14.245 19.116,14.203 C19.0825,14.161 19.064,14.093 19.064,14.0005 L19.064,10.967 L18.2565,10.967 L18.2565,14.2725 C18.2565,14.5095 18.3025,14.685 18.398,14.802 C18.4925,14.921 18.633,14.9805 18.821,14.9805" id="Fill-9" fill="#FFFFFF"></path>
  </g>
</svg>
