<svg xmlns="http://www.w3.org/2000/svg" viewBox="0 0 30 30"><path fill="#333" d="M22 12h-1.3l.6-2.7c.4-1.6.1-3.2-.8-4.5-.9-1.4-2.2-2.3-3.7-2.7-1.6-.4-3.2-.1-4.5.8-1.4.9-2.3 2.2-2.7 3.8l2 .4c.2-1 .9-1.9 1.8-2.5.9-.6 2-.8 3-.5 1 .2 1.9.9 2.5 1.8s.8 2 .5 3l-.7 3.1H8c-1.1 0-2 .9-2 2v5c0 5 4 9 9 9s9-4 9-9v-5c0-1.1-.9-2-2-2zm0 7c0 3.9-3.1 7-7 7s-7-3.1-7-7v-5h14v5z" class="st0"/><path fill="#333" d="M14 19.7V22c0 .6.4 1 1 1s1-.4 1-1v-2.3c.6-.3 1-1 1-1.7 0-1.1-.9-2-2-2s-2 .9-2 2c0 .7.4 1.4 1 1.7z" class="st0"/></svg>