<svg xmlns="http://www.w3.org/2000/svg" viewBox="0 0 30 30"><g fill="#333"><path d="M27 6H3c-.6 0-1 .4-1 1v5.5c0 .6.4 1 1 1 .8 0 1.5.7 1.5 1.5s-.7 1.5-1.5 1.5c-.6 0-1 .4-1 1V23c0 .6.4 1 1 1h24c.6 0 1-.4 1-1V7c0-.6-.4-1-1-1zm-1 16H10.5c0-.6-.4-1-1-1s-1 .4-1 1H4v-3.6c1.4-.4 2.5-1.8 2.5-3.4 0-1.6-1.1-2.9-2.5-3.4V8h4.5c0 .6.4 1 1 1s1-.4 1-1H26v14z"/><path d="M9.5 10.5c-.6 0-1 .4-1 1V13c0 .6.4 1 1 1s1-.4 1-1v-1.5c0-.6-.4-1-1-1zM9.5 16c-.6 0-1 .4-1 1v1.5c0 .6.4 1 1 1s1-.4 1-1V17c0-.6-.4-1-1-1zM14.5 20c.3 0 .5-.1.7-.3l7.5-7.5c.4-.4.4-1 0-1.4s-1-.4-1.4 0l-7.5 7.5c-.4.4-.4 1 0 1.4.2.2.4.3.7.3z"/><circle cx="15" cy="12" r="1.5"/><circle cx="21.5" cy="18.5" r="1.5"/></g></svg>