<svg xmlns="http://www.w3.org/2000/svg" viewBox="0 0 30 30"><path fill="#333" d="M27 26c-3.87 0-6.2-1-7.84-2.9l.26.08a3.49 3.49 0 0 0 .71.07 3.65 3.65 0 0 0 2.25-.79 4 4 0 0 0 1.54-3v-.1l-.07-1.09.86-.68.08-.07A4 4 0 0 0 26 14.41a3.65 3.65 0 0 0-1.42-2.7A3.82 3.82 0 0 0 21.8 11a3.84 3.84 0 0 0 1.58-2.4 3.66 3.66 0 0 0-.72-3 4 4 0 0 0-3-1.52h-.1l-1.09.07-.67-.86-.06-.07A4 4 0 0 0 14.66 2 3.68 3.68 0 0 0 12 3.43a3.88 3.88 0 0 0-.76 2.13 3.83 3.83 0 0 0-3.61-1.34 3.88 3.88 0 0 0-3.16 3.56v1.77l-1.39 1.26a3.8 3.8 0 0 0 2.75 6.46h.11a3.78 3.78 0 0 0-1.07 2 3.64 3.64 0 0 0 .72 3 4 4 0 0 0 3 1.53h.1l1.08-.06.67.85.07.08a4 4 0 0 0 2.86 1.21h.25a3.62 3.62 0 0 0 2.7-1.44 3.56 3.56 0 0 0 .54-1c2 3 4.9 4.66 10.17 4.66a1 1 0 0 0 0-2zm-12.3-2.82a1.65 1.65 0 0 1-1.23.64 2 2 0 0 1-1.47-.57L11 22a1 1 0 0 0-.84-.38l-1.55.09A2 2 0 0 1 7.17 21a1.6 1.6 0 0 1-.34-1.35 1.86 1.86 0 0 1 .89-1.26l4.36-2.67a1 1 0 0 0-.77-1.8l-5 1.3a1.9 1.9 0 0 1-2.08-.81 1.83 1.83 0 0 1 .24-2.17l1.61-1.5a1 1 0 0 0 .34-.74V7.87A1.83 1.83 0 0 1 7.93 6.2a1.87 1.87 0 0 1 2 1l2.34 4.59a1 1 0 0 0 1.06.54 1 1 0 0 0 .8-1.16l-.9-5a1.86 1.86 0 0 1 .34-1.5A1.62 1.62 0 0 1 14.78 4a2 2 0 0 1 1.52.56l1 1.22a1 1 0 0 0 .84.39l1.55-.1a2 2 0 0 1 1.43.76 1.6 1.6 0 0 1 .34 1.35 1.86 1.86 0 0 1-.89 1.25l-4.42 2.64a1 1 0 0 0-.35 1.37 1 1 0 0 0 .86.49h.21l5-.95a1.83 1.83 0 0 1 1.49.35 1.64 1.64 0 0 1 .64 1.2 2.05 2.05 0 0 1-.58 1.54L22.2 17a1 1 0 0 0-.37.85l.09 1.55a2.07 2.07 0 0 1-.77 1.45 1.64 1.64 0 0 1-1.33.34 1.84 1.84 0 0 1-1.25-.89l-2.66-4.42a1 1 0 0 0-1.83.7l1 5.06a1.92 1.92 0 0 1-.38 1.54z" data-name="Layer 1"/></svg>