<svg xmlns="http://www.w3.org/2000/svg" viewBox="0 0 30 30"><g fill="#333"><path d="M8 19c-.6 0-1 .4-1 1v2c0 .6.4 1 1 1s1-.4 1-1v-2c0-.6-.4-1-1-1zM12 20h8.5c.6 0 1-.4 1-1s-.4-1-1-1H12c-.6 0-1 .4-1 1s.4 1 1 1zM19.5 22c-.6 0-1 .4-1 1s.4 1 1 1H21c.6 0 1-.4 1-1s-.4-1-1-1h-1.5zM16 22h-.5c-.6 0-1 .4-1 1s.4 1 1 1h.5c.6 0 1-.4 1-1s-.4-1-1-1zM11.9 13.4c.1 0 .3 0 .4-.1L20 9.7c.5-.2.7-.8.5-1.3s-.8-.7-1.3-.5l-7.7 3.6c-.5.2-.7.8-.5 1.3.1.3.5.6.9.6zM19.5 13.2c.2.4.5.6.9.6.1 0 .3 0 .4-.1l1.4-.6c.5-.2.7-.8.5-1.3s-.8-.7-1.3-.5l-1.4.6c-.6.2-.8.8-.5 1.3z"/><path d="M27.9 13.7L22.8 2.8c-.2-.5-.8-.7-1.3-.5L3 11c-.2.1-.4.3-.5.6-.1.2-.1.5 0 .8l.8 1.6H3c-.6 0-1 .4-1 1v12c0 .6.4 1 1 1h22c.6 0 1-.4 1-1V15.7l1.4-.7c.2-.1.4-.3.5-.6.1-.2.1-.5 0-.7zM4.7 12.4l1.8-.9.3.5c.2.4.5.6.9.6.1 0 .3 0 .4-.1.5-.2.7-.8.5-1.3l-.2-.5 13.1-6.1 4.2 9.1-.8.3h-6.7v-.1c-.2-.5-.8-.7-1.3-.5l-.5.2c-.2.1-.3.2-.4.4H9.8c-.3-.3-.7-.4-1.1-.2-.1 0-.2.1-.3.2h-3l-.7-1.6zM24 26H9v-.5c0-.6-.4-1-1-1s-1 .4-1 1v.5H4V16h3v.5c0 .6.4 1 1 1s1-.4 1-1V16h15v10z"/></g></svg>