<svg xmlns="http://www.w3.org/2000/svg" data-name="Layer 1" viewBox="0 0 30 30"><path fill="#333" d="M20.67 10.71a2.35 2.35 0 0 0-1.38-1.38 4 4 0 0 0-1.35-.25h-5.88a4 4 0 0 0-1.35.25 2.35 2.35 0 0 0-1.38 1.38 4 4 0 0 0-.25 1.35v5.88a4 4 0 0 0 .25 1.35 2.35 2.35 0 0 0 1.38 1.38 4 4 0 0 0 1.35.25h5.88a4 4 0 0 0 1.35-.25 2.35 2.35 0 0 0 1.38-1.38 4 4 0 0 0 .25-1.35V15v-2.94a4 4 0 0 0-.25-1.35zm-5.67 8A3.74 3.74 0 1 1 18.74 15 3.75 3.75 0 0 1 15 18.74zM18.88 12a.88.88 0 1 1 .88-.87.87.87 0 0 1-.88.87z"/><path fill="#333" d="M15 12.58A2.42 2.42 0 1 0 17.42 15 2.42 2.42 0 0 0 15 12.58z"/><path fill="#333" d="M15 2a13 13 0 1 0 13 13A13 13 0 0 0 15 2zm7.23 16a5.28 5.28 0 0 1-.34 1.77 3.77 3.77 0 0 1-2.12 2.12 5.28 5.28 0 0 1-1.77.34h-6a5.28 5.28 0 0 1-1.77-.34 3.77 3.77 0 0 1-2.12-2.12A5.28 5.28 0 0 1 7.77 18v-3-3a5.28 5.28 0 0 1 .34-1.77 3.77 3.77 0 0 1 2.12-2.12A5.28 5.28 0 0 1 12 7.77h6a5.28 5.28 0 0 1 1.77.34 3.77 3.77 0 0 1 2.12 2.12 5.28 5.28 0 0 1 .34 1.77v3c0 2 .04 2.22 0 3z"/></svg>