<svg xmlns="http://www.w3.org/2000/svg" data-name="Layer 1" viewBox="0 0 30 30"><path fill="#333" d="M15 2a13 13 0 1 0 13 13A13 13 0 0 0 15 2zm6.51 10.5v.41a8.89 8.89 0 0 1-13.67 7.52 6.17 6.17 0 0 0 .75 0 6.26 6.26 0 0 0 3.88-1.33A3.14 3.14 0 0 1 9.55 17a3.68 3.68 0 0 0 .58.05 2.82 2.82 0 0 0 .83-.11 3.11 3.11 0 0 1-2.51-3.06 3 3 0 0 0 1.42.39A3.13 3.13 0 0 1 8.9 10a8.87 8.87 0 0 0 6.44 3.27 3.38 3.38 0 0 1-.08-.72 3.12 3.12 0 0 1 5.4-2.13 6.32 6.32 0 0 0 2-.76 3.17 3.17 0 0 1-1.38 1.73 6.75 6.75 0 0 0 1.8-.49 6.45 6.45 0 0 1-1.57 1.64z"/></svg>