<svg xmlns="http://www.w3.org/2000/svg" data-name="Layer 1" viewBox="0 0 30 30"><path fill="#333" d="M15 2a13 13 0 1 0 13 13A13 13 0 0 0 15 2zm-3.77 15.91H9.14a.34.34 0 0 1-.28-.14.36.36 0 0 1 0-.32l2.23-3.93-1.42-2.46a.33.33 0 0 1 0-.32.31.31 0 0 1 .29-.13H12a.64.64 0 0 1 .59.39l1.44 2.51-2.26 4a.64.64 0 0 1-.54.4zm9.9-9.71l-4.63 8.19 2.95 5.4a.31.31 0 0 1 0 .32.32.32 0 0 1-.28.13h-2.09a.64.64 0 0 1-.58-.4l-3-5.46 4.66-8.26a.61.61 0 0 1 .56-.4h2.12a.32.32 0 0 1 .28.13.35.35 0 0 1 .01.35z"/></svg>