<svg id="Layer_1" data-name="Layer 1" xmlns="http://www.w3.org/2000/svg" viewBox="0 0 30 30"><defs><style>.cls-1{fill:#333;}</style></defs><title>bloodtype_BOLD</title><path class="cls-1" d="M22.14,15.47,15.89,3.54a1,1,0,0,0-1.78,0l-6.26,12A8,8,0,0,0,15,27a8,8,0,0,0,7.14-11.53Zm-2,6.69a6,6,0,0,1-10.22,0,5.89,5.89,0,0,1-.26-5.76L15,6.16l5.36,10.23A5.88,5.88,0,0,1,20.11,22.16Z"/><path class="cls-1" d="M15,21a2,2,0,0,1-1.7-.95,1.92,1.92,0,0,1-.09-1.91,1,1,0,1,0-1.78-.9,3.93,3.93,0,0,0,.16,3.86A4,4,0,0,0,15,23a1,1,0,0,0,0-2Z"/></svg>