<svg id="Layer_1" data-name="Layer 1" xmlns="http://www.w3.org/2000/svg" viewBox="0 0 30 30"><defs><style>.cls-1{fill:#333;}</style></defs><title>ear_BOLD</title><path class="cls-1" d="M15,2a9,9,0,0,0-9,9,8.88,8.88,0,0,0,.89,3.9A1,1,0,1,0,8.69,14,6.9,6.9,0,0,1,8,11a7,7,0,1,1,11.89,5,9.91,9.91,0,0,0-3.39,7.56A2.43,2.43,0,0,1,14.07,26a2.6,2.6,0,0,1-2.57-2.5,1,1,0,0,0-2,0A4.59,4.59,0,0,0,14.07,28a4.44,4.44,0,0,0,4.43-4.43,8,8,0,0,1,2.79-6.13A9,9,0,0,0,15,2Z"/><path class="cls-1" d="M13.1,17.06a1.63,1.63,0,0,1-1.86,1A1,1,0,0,0,10.75,20a3.58,3.58,0,0,0,.79.09,3.66,3.66,0,0,0,3.36-2.14,11.56,11.56,0,0,1,2.85-4A3.87,3.87,0,0,0,19,11a4,4,0,1,0-7.6,1.74,1,1,0,1,0,1.81-.85A2.1,2.1,0,0,1,13,11a2,2,0,1,1,4,0,1.85,1.85,0,0,1-.56,1.42A13.67,13.67,0,0,0,13.1,17.06Z"/></svg>