<?xml version="1.0" encoding="UTF-8"?>
<svg xmlns="http://www.w3.org/2000/svg" viewBox="0 0 30 30"><path fill="none" d="M0 0h30v30H0z"/><g fill="#333" data-name="Layer 1"><path d="M9.77 20L9 17.69H4.89L4.13 20H2L5.83 8.72H8.2L12.09 20zm-2.33-7a14.6 14.6 0 0 1-.5-1.8c-.13.58-.3 1.23-.51 1.88L5.42 16h3zM16.26 20a12 12 0 0 1-3.26-.4v-12h2.26v3.57a9.19 9.19 0 0 1-.15 1.62 2.84 2.84 0 0 1 2.65-1.47c2.09 0 3.22 1.44 3.22 3.89A4.42 4.42 0 0 1 16.26 20zm.88-6.87c-1.18 0-1.88 1.29-1.88 2.68v2.34a3.81 3.81 0 0 0 1.18.15c1.26 0 2.2-.77 2.2-2.83 0-1.55-.48-2.34-1.5-2.34zM25.73 20c-2.3 0-3.73-1.2-3.73-4 0-2.59 1.35-4.57 4.28-4.57a6.4 6.4 0 0 1 1.7.23l-.21 1.85a4.55 4.55 0 0 0-1.5-.3c-1.35 0-2 1-2 2.58s.55 2.39 2 2.39a3.62 3.62 0 0 0 1.63-.36l.1 1.8a6.79 6.79 0 0 1-2.27.38z" style="fill: #333333;"/></g></svg>
