<?xml version="1.0" encoding="UTF-8"?>
<svg xmlns="http://www.w3.org/2000/svg" data-name="Layer 1" viewBox="0 0 30 30"><path fill="#333" d="M15 8a1 1 0 0 1-1-1V3a1 1 0 0 1 2 0v4a1 1 0 0 1-1 1zM23 10a1 1 0 0 1-.71-.29 1 1 0 0 1 0-1.42l3-3a1 1 0 1 1 1.42 1.42l-3 3A1 1 0 0 1 23 10zM7 10a1 1 0 0 1-.71-.29l-3-3a1 1 0 0 1 1.42-1.42l3 3a1 1 0 0 1 0 1.42A1 1 0 0 1 7 10zM23 28H7a1 1 0 0 1-1-1v-8a9 9 0 1 1 18 0v8a1 1 0 0 1-1 1zM8 26h14v-7a7 7 0 1 0-14 0z" style="fill: #333333;"/><path fill="none" d="M0 0h30v30H0z"/></svg>
