<svg id="Layer_1" data-name="Layer 1" xmlns="http://www.w3.org/2000/svg" viewBox="0 0 30 30"><defs><style>.cls-1{fill:#333;}</style></defs><title>Artboard 1</title><path class="cls-1" d="M26.71,13.29l-2-2a1,1,0,0,0-1.42,1.42l.3.29H21.92A6.92,6.92,0,0,0,20.6,9.81L22,8.41v.42a1,1,0,0,0,2,0V6a1,1,0,0,0-1-1H20.17a1,1,0,0,0,0,2h.42l-1.4,1.4A6.92,6.92,0,0,0,16,7.08V5.41l.29.3a1,1,0,0,0,1.42,0,1,1,0,0,0,0-1.42l-2-2a1,1,0,0,0-1.42,0l-2,2a1,1,0,0,0,1.42,1.42l.29-.3V7.08A6.92,6.92,0,0,0,10.81,8.4L9.41,7h.42a1,1,0,0,0,0-2H7A1,1,0,0,0,6,6V8.83a1,1,0,0,0,2,0V8.41l1.4,1.4A6.92,6.92,0,0,0,8.08,13H6.41l.3-.29a1,1,0,0,0-1.42-1.42l-2,2a1,1,0,0,0,0,1.42l2,2a1,1,0,0,0,1.42,0,1,1,0,0,0,0-1.42L6.41,15H8.08A6.92,6.92,0,0,0,9.4,18.19L8,19.59v-.42a1,1,0,0,0-2,0V22a1,1,0,0,0,1,1H9.83a1,1,0,0,0,0-2H9.41L11.46,19a1,1,0,0,0,0-1.41,5,5,0,1,1,7.08,0,1,1,0,0,0,0,1.41L20.59,21h-.42a1,1,0,0,0,0,2H23a1,1,0,0,0,1-1V19.17a1,1,0,0,0-2,0v.42l-1.4-1.4A6.92,6.92,0,0,0,21.92,15h1.67l-.3.29a1,1,0,0,0,0,1.42,1,1,0,0,0,1.42,0l2-2A1,1,0,0,0,26.71,13.29Z"/><path class="cls-1" d="M15,11a3,3,0,0,0-1,5.82V27a1,1,0,0,0,2,0V16.82A3,3,0,0,0,15,11Zm0,4a1,1,0,1,1,1-1A1,1,0,0,1,15,15Z"/></svg>