<svg xmlns="http://www.w3.org/2000/svg" viewBox="0 0 30 30"><g fill="#333" data-name="Layer 1"><path d="M10.26 26H6.77l-1.46-5.25a8.6 8.6 0 0 1 .26-5.39l1-3.36H9.4l.48 1.52a10 10 0 0 1 1.54-1.77l-.89-2.84L11 5.4a2.34 2.34 0 0 0 0-.4 3 3 0 0 0-6 0 2.25 2.25 0 0 0 0 .38l.46 3.53-1.81 5.8a10.51 10.51 0 0 0-.29 6.58l1.66 6A1 1 0 0 0 6 28h6.34a10.42 10.42 0 0 1-2.08-2zM8 4a1 1 0 0 1 1 1v.16l-.47 3.7a.89.89 0 0 0 0 .43l.22.7h-1.5l.22-.7a1 1 0 0 0 0-.43L7 5.13V5a1 1 0 0 1 1-1z"/><path d="M18.5 11a8.5 8.5 0 1 0 8.5 8.5 8.51 8.51 0 0 0-8.5-8.5zm0 15a6.5 6.5 0 1 1 6.5-6.5 6.51 6.51 0 0 1-6.5 6.5z"/><circle cx="19.5" cy="15.5" r="1"/><circle cx="21.5" cy="18.5" r="1"/><circle cx="17.5" cy="18.5" r="1"/></g></svg>