<?xml version="1.0" encoding="UTF-8"?>
<svg xmlns="http://www.w3.org/2000/svg" viewBox="0 0 30 30"><path fill="#333" d="M23 13h-5V9a1 1 0 0 0-.59-.91A3 3 0 0 0 18 6.32a3.18 3.18 0 0 0-1.44-2.61C16.09 3.32 16 3.2 16 3a1 1 0 0 0-1.33-.94A4.65 4.65 0 0 0 12 6.32a3 3 0 0 0 .59 1.77A1 1 0 0 0 12 9v4H7a3 3 0 0 0-3 3v11a1 1 0 0 0 1 1h20a1 1 0 0 0 1-1V16a3 3 0 0 0-3-3zm-8.42-8.42a5.37 5.37 0 0 0 .71.67c.54.44.71.62.71 1.07a1 1 0 0 1-2 0 3.18 3.18 0 0 1 .58-1.74zM14 10h2v3h-2zm-7 5h16a1 1 0 0 1 1 1v2.57l-.29-.28a3.49 3.49 0 0 0-5.42 0c-.49.49-.73.71-1.29.71s-.8-.22-1.29-.71a3.49 3.49 0 0 0-5.42 0c-.49.49-.73.71-1.29.71s-.8-.22-1.29-.71A4 4 0 0 0 6 17.15V16a1 1 0 0 1 1-1zM6 26v-6.57l.29.28A3.6 3.6 0 0 0 9 21a3.6 3.6 0 0 0 2.71-1.29c.49-.49.73-.71 1.29-.71s.8.22 1.29.71a3.49 3.49 0 0 0 5.42 0c.49-.49.73-.71 1.29-.71s.8.22 1.29.71A4 4 0 0 0 24 20.85V26z" data-name="Layer 1" style="fill: #333333;"/></svg>
