<svg id="Layer_1" data-name="Layer 1" xmlns="http://www.w3.org/2000/svg" viewBox="0 0 30 30"><defs><style>.cls-1{fill:#333;}</style></defs><title>cardigram_BOLD</title><path class="cls-1" d="M25,4H5A1,1,0,0,0,4,5V23a1,1,0,0,0,1,1h5v3a1,1,0,0,0,1,1h8a1,1,0,0,0,1-1V24h5a1,1,0,0,0,1-1V5A1,1,0,0,0,25,4ZM18,26H12V24h6Zm6-4H6V16h4.5a1,1,0,0,0,.93-.63l1-2.39,1.67,5.32a1,1,0,0,0,.87.7H15a1,1,0,0,0,.89-.55L17.12,16H19.5a1,1,0,0,0,0-2h-3a1,1,0,0,0-.89.55l-.4.78L13.45,9.7a1,1,0,0,0-1.88-.07L9.82,14H6V6H24Z"/></svg>