<svg id="Layer_1" data-name="Layer 1" xmlns="http://www.w3.org/2000/svg" viewBox="0 0 30 30"><defs><style>.cls-1{fill:#333;}</style></defs><title>cells_BOLD</title><path class="cls-1" d="M10,15.5a3,3,0,1,1,3-3A3,3,0,0,1,10,15.5Zm0-4a1,1,0,1,0,1,1A1,1,0,0,0,10,11.5Z"/><path class="cls-1" d="M17,17.5a2,2,0,1,1,2-2A2,2,0,0,1,17,17.5Zm0-2Z"/><path class="cls-1" d="M19,21a1,1,0,1,1,1-1A1,1,0,0,1,19,21Zm1-1h0Zm-1,0Z"/><path class="cls-1" d="M22.5,16a1,1,0,0,1-1-1A5.51,5.51,0,0,0,16,9.5a1,1,0,0,1,0-2A7.5,7.5,0,0,1,23.5,15,1,1,0,0,1,22.5,16Z"/><path class="cls-1" d="M14,22a4,4,0,0,1-4-4,1,1,0,0,1,2,0,2,2,0,0,0,2,2,1,1,0,0,1,0,2Z"/><path class="cls-1" d="M15,28A13,13,0,1,1,28,15,13,13,0,0,1,15,28ZM15,4A11,11,0,1,0,26,15,11,11,0,0,0,15,4Z"/></svg>