<svg id="Layer_1" data-name="Layer 1" xmlns="http://www.w3.org/2000/svg" viewBox="0 0 30 30"><defs><style>.cls-1{fill:#333;}</style></defs><title>chain-break_BOLD</title><path class="cls-1" d="M12,8a1,1,0,0,0,1-1V5a1,1,0,0,0-2,0V7A1,1,0,0,0,12,8Z"/><path class="cls-1" d="M8.29,8.71a1,1,0,0,0,1.42,0,1,1,0,0,0,0-1.42l-2-2A1,1,0,0,0,6.29,6.71Z"/><path class="cls-1" d="M6,12H8a1,1,0,0,0,0-2H6a1,1,0,0,0,0,2Z"/><path class="cls-1" d="M25,16H23a1,1,0,0,0,0,2h2a1,1,0,0,0,0-2Z"/><path class="cls-1" d="M22.71,19.29a1,1,0,0,0-1.42,1.42l2,2a1,1,0,0,0,1.42,0,1,1,0,0,0,0-1.42Z"/><path class="cls-1" d="M19,20a1,1,0,0,0-1,1v2a1,1,0,0,0,2,0V21A1,1,0,0,0,19,20Z"/><path class="cls-1" d="M17.36,8.81l1.06-1a2.69,2.69,0,0,1,3.8,3.8l-3.15,3.15a5.57,5.57,0,0,1,.19,2.53,4.78,4.78,0,0,0,.65-.54L23.63,13A4.69,4.69,0,0,0,17,6.36l-1,1a1,1,0,1,0,1.39,1.43Z"/><path class="cls-1" d="M18.25,15.52a4.68,4.68,0,0,0-1.31-2.46,4.78,4.78,0,0,0-1.41-1l-.13.13a1.69,1.69,0,0,0-.49,1.2,1.49,1.49,0,0,0,.16.69,2.67,2.67,0,0,1,.46.37,2.74,2.74,0,0,1,.77,1.59,2.67,2.67,0,0,1-.48,2,1.93,1.93,0,0,1-.29.35l-3.8,3.8a2.74,2.74,0,0,1-2,.78,2.73,2.73,0,0,1-1.95-4.68l3.3-3.3a5.45,5.45,0,0,1-.22-1.56,5.33,5.33,0,0,1,.09-1,4.22,4.22,0,0,0-.78.63l-3.8,3.79a4.77,4.77,0,0,0,0,6.73,4.77,4.77,0,0,0,6.73,0l3.79-3.8a4.66,4.66,0,0,0,1.18-2A4.76,4.76,0,0,0,18.25,15.52Z"/><path class="cls-1" d="M12.28,11.58c0,.1-.08.2-.11.3s-.08.24-.11.37-.06.25-.08.38a.68.68,0,0,0,0,.19c0,.06,0,.12,0,.19s0,.27,0,.4,0,.26,0,.39,0,.26.05.38a2.56,2.56,0,0,0,0,.27c0,.13.07.27.11.4s.09.26.14.39a4.7,4.7,0,0,0,2.48,2.48l.06-.06a1.71,1.71,0,0,0,.34-2,2.4,2.4,0,0,1-.47-.37,1.81,1.81,0,0,1-.25-.3,1,1,0,0,1-.11-.17l-.06-.11-.12-.22-.05-.11a.76.76,0,0,1,0-.11,2.17,2.17,0,0,1-.07-.24,2.3,2.3,0,0,1-.06-.28.22.22,0,0,0,0-.08c0-.09,0-.18,0-.28s0-.22,0-.33a.13.13,0,0,1,0-.06,1.59,1.59,0,0,1,.06-.3.7.7,0,0,1,.06-.19,2.46,2.46,0,0,1,.42-.78h0l.07-.09.13-.15a.94.94,0,0,0,.28-.66.76.76,0,0,0,0-.26,1.21,1.21,0,0,0,0-.18.93.93,0,0,0-.21-.32,1,1,0,0,0-1.41,0,4.78,4.78,0,0,0-.54.65A4.27,4.27,0,0,0,12.28,11.58Z"/></svg>