<?xml version="1.0" encoding="UTF-8"?>
<svg xmlns="http://www.w3.org/2000/svg" viewBox="0 0 30 30"><path fill="#333" d="M25 11h-1V7c0-2.8-2.2-5-5-5h-8C8.2 2 6 4.2 6 7v4H5c-1.7 0-3 1.3-3 3v6c0 1.7 1.3 3 3 3h1v5h2v-5h14v5h2v-5h1c1.7 0 3-1.3 3-3v-6c0-1.7-1.3-3-3-3zM8 7c0-1.7 1.3-3 3-3h8c1.7 0 3 1.3 3 3v8.6c-.6-.3-1.3-.6-2-.6H10c-.7 0-1.4.2-2 .6V7zM5 21c-.6 0-1-.4-1-1v-6c0-.6.4-1 1-1h1v8H5zm3 0v-2c0-1.1.9-2 2-2h10c1.1 0 2 .9 2 2v2H8zm18-1c0 .6-.4 1-1 1h-1v-8h1c.6 0 1 .4 1 1v6z" style="fill: #333333;"/></svg>
