<svg xmlns="http://www.w3.org/2000/svg" viewBox="0 0 30 30"><g fill="#333" data-name="Layer 1"><path d="M4 14a4 4 0 0 1 3.21-3.92A1 1 0 0 0 8 9a5 5 0 0 1 9.69-1.62 1 1 0 0 0 .94.66H21a5 5 0 0 1 4.88 3.92 9.72 9.72 0 0 1 2.05 2A5.62 5.62 0 0 0 28 13a7 7 0 0 0-7-7h-1.7A7 7 0 0 0 6 8.33 6 6 0 0 0 8 20h2a10 10 0 0 1 .2-2H8a4 4 0 0 1-4-4z"/><path d="M25.77 14.47A7.94 7.94 0 0 0 20.24 12h-.48a8 8 0 0 0-7.51 6 8.24 8.24 0 0 0-.25 2 8 8 0 0 0 7.76 8h.48A8 8 0 0 0 28 20a7.92 7.92 0 0 0-.89-3.66 8.07 8.07 0 0 0-1.34-1.87zM23.15 25.1a11.71 11.71 0 0 0 .58-2.1h1.46a6 6 0 0 1-2.04 2.1zM14.81 23h1.46a11.71 11.71 0 0 0 .58 2.1 6 6 0 0 1-2.04-2.1zM14 20a5.47 5.47 0 0 1 .09-1H16v2h-1.91a5.47 5.47 0 0 1-.09-1zm2.85-5.1a11.71 11.71 0 0 0-.58 2.1h-1.46a6 6 0 0 1 2.04-2.1zm8.34 2.1h-1.46a11.71 11.71 0 0 0-.58-2.1 6 6 0 0 1 2.04 2.1zM22 20v1h-4v-1-1h4v1zm-.31-3h-3.38c.43-1.91 1.2-3 1.69-3s1.26 1.09 1.69 3zm-3.38 6h3.38c-.43 1.91-1.2 3-1.69 3s-1.26-1.09-1.69-3zM24 21v-1-1h1.94a5.6 5.6 0 0 1 0 2z"/></g></svg>