<?xml version="1.0" encoding="UTF-8"?>
<svg xmlns="http://www.w3.org/2000/svg" viewBox="0 0 30 30"><path fill="none" d="M0 0h30v30H0z"/><path fill="#333" d="M27.71 8.29a1 1 0 0 0-1.42 0h-.05l-3.16-3.12-1.41-1.41a1 1 0 1 0-1.42-1.42 7.07 7.07 0 0 0-2.05 6.2 5.81 5.81 0 0 0 .43 1.4l.59 1.3a4.48 4.48 0 0 1 0 3.62l-1.62-1.67-2.41-2.41a4.84 4.84 0 0 1 1.53-.38 7.49 7.49 0 0 1-.51-2A8.32 8.32 0 0 0 12 10.54L10.54 12a6.83 6.83 0 0 0-1.62 7.6l.59 1.3a4.48 4.48 0 0 1 0 3.62l-1.66-1.58-2.41-2.41A4.84 4.84 0 0 1 7 20.15a7.81 7.81 0 0 1-.52-1.95 7.28 7.28 0 0 0-4.16 2.09 1 1 0 0 0 0 1.42 1 1 0 0 0 1.42 0l3.16 3.16 1.41 1.41v.05a1 1 0 0 0 0 1.42 1 1 0 0 0 1.42 0 7.07 7.07 0 0 0 2-6.2 5.81 5.81 0 0 0-.43-1.4l-.59-1.3a4.48 4.48 0 0 1 0-3.62l1.62 1.62 2.41 2.41a4.84 4.84 0 0 1-1.53.38 7.49 7.49 0 0 1 .51 1.95A7.33 7.33 0 0 0 18 19.46l1.5-1.5a5.92 5.92 0 0 0 .62-.72 6.9 6.9 0 0 0 1.43-5.48 5.81 5.81 0 0 0-.43-1.4l-.59-1.3a4.48 4.48 0 0 1 0-3.62l1.62 1.62 2.41 2.41a4.84 4.84 0 0 1-1.56.38 8.12 8.12 0 0 1 .51 2 7.33 7.33 0 0 0 4.17-2.09 1 1 0 0 0 .03-1.47zM13 14.63l-1.12-1.12.65-.65.85-.85 4.57 4.57v.05L16.54 18h-.05z" data-name="Layer 1" style="fill: #333333;"/></svg>
