<svg id="Layer_1" data-name="Layer 1" xmlns="http://www.w3.org/2000/svg" viewBox="0 0 30 30"><defs><style>.cls-1{fill:#333;}</style></defs><title>doctors-office_BOLD</title><path class="cls-1" d="M26.36,12.41,16.43,2.57a2.08,2.08,0,0,0-2.88,0l-9.9,9.8A2.14,2.14,0,0,0,3,13.91V27a1,1,0,0,0,1,1H26a1,1,0,0,0,1-1V13.91A2.09,2.09,0,0,0,26.36,12.41ZM25,26H5V13.91L14.94,4S15,4,15,4l10,9.9Z"/><path class="cls-1" d="M12,11v3H9a1,1,0,0,0-1,1v4a1,1,0,0,0,1,1h3v3a1,1,0,0,0,1,1h4a1,1,0,0,0,1-1V20h3a1,1,0,0,0,1-1V15a1,1,0,0,0-1-1H18V11a1,1,0,0,0-1-1H13A1,1,0,0,0,12,11Zm2,1h2v4h4v2H16v4H14V18H10V16h4V12Z"/></svg>