<svg id="Layer_1" data-name="Layer 1" xmlns="http://www.w3.org/2000/svg" viewBox="0 0 30 30"><defs><style>.cls-1{fill:#333;}</style></defs><title>erasor_BOLD</title><path class="cls-1" d="M18.6,23H12.41l10.3-10.29a1,1,0,0,0,0-1.42l-6-6a1,1,0,0,0-1.42,0L3.93,16.65a3.2,3.2,0,0,0,0,4.51l2.91,2.91A3.41,3.41,0,0,0,9,25h9.6a1,1,0,0,0,0-2ZM16,7.41,20.59,12l-5.77,5.77-4.59-4.59ZM5.34,19.74a1.18,1.18,0,0,1,0-1.67l3.48-3.48,4.58,4.59L9.93,22.65a1.19,1.19,0,0,1-1.68,0Z"/><path class="cls-1" d="M27,23H22.2a1,1,0,0,0,0,2H27a1,1,0,0,0,0-2Z"/></svg>