<svg id="Layer_1" data-name="Layer 1" xmlns="http://www.w3.org/2000/svg" viewBox="0 0 30 30"><defs><style>.cls-1{fill:#333;}</style></defs><title>flask_BOLD</title><path class="cls-1" d="M26.24,20.08,19,8.71V3a1,1,0,0,0-1-1H12a1,1,0,0,0-1,1V8.71L3.74,20.11A5.21,5.21,0,0,0,3,22.73,5.44,5.44,0,0,0,8.6,28H21.4A5.44,5.44,0,0,0,27,22.73,5.37,5.37,0,0,0,26.24,20.08ZM12.84,9.54A1,1,0,0,0,13,9V4h4V9a1,1,0,0,0,.16.54l5,7.91c-1.34.46-4,1.08-6.15-.29-2.37-1.53-5.45-1.26-7.54-.8ZM21.4,26H8.6A3.46,3.46,0,0,1,5,22.73a3.09,3.09,0,0,1,.45-1.58l1.42-2.22h0s5.06-2,8.08-.09A7.62,7.62,0,0,0,19.13,20a11.85,11.85,0,0,0,4.16-.82l1.23,1.92A3.28,3.28,0,0,1,25,22.73,3.46,3.46,0,0,1,21.4,26Z"/></svg>