<svg xmlns="http://www.w3.org/2000/svg" viewBox="0 0 30 30"><defs><style>.cls-1{fill:#333;}</style></defs><title>hand-sanitiser_BOLD</title><g id="Layer_1" data-name="Layer 1"><path class="cls-1" d="M27.29,20.87l-5.58-5.58A1,1,0,0,0,21,15H15a3,3,0,0,0-3,3,3.1,3.1,0,0,0,.11.81L6.62,14.48a3,3,0,0,0-4.22,1,3,3,0,0,0,1,4l6.52,5.27a1,1,0,0,0,.63.22h8.09l2.28,2.29a1,1,0,0,0,1.42,0l5-5A1,1,0,0,0,27.29,20.87Zm-5.71,4.3-1.87-1.88A1,1,0,0,0,19,23H10.85L4.57,17.92l-.1-.07a1,1,0,0,1-.34-1.35A1,1,0,0,1,4.76,16a1,1,0,0,1,.7.07l5.92,4.68A1,1,0,0,0,12,21h7a1,1,0,0,0,0-2H15a1,1,0,0,1,0-2h5.59l4.58,4.58Z"/><path class="cls-1" d="M13.1,11.42h0A3.49,3.49,0,0,0,15,12,3.43,3.43,0,0,0,17,11.42,3.47,3.47,0,0,0,18.13,7L15.92,2.55a1,1,0,0,0-1.79,0L11.92,7A3.48,3.48,0,0,0,13.1,11.42Zm.61-3.55L15,5.24l1.31,2.63a1.47,1.47,0,1,1-2.63,0Z"/></g></svg>