<svg id="Layer_1" data-name="Layer 1" xmlns="http://www.w3.org/2000/svg" viewBox="0 0 30 30"><defs><style>.cls-1{fill:#333;}</style></defs><title>healthy-food_BOLD</title><path class="cls-1" d="M23.43,8.19c-2.32-2.07-7-.72-8.43-.25-1.4-.47-6.11-1.82-8.43.25C2.27,12,4.13,19,6.45,24.11A6.93,6.93,0,0,0,14,27.88a5.17,5.17,0,0,1,1.92,0h0a7.37,7.37,0,0,0,1.32.12,6.83,6.83,0,0,0,6.27-3.89C25.87,19,27.73,12,23.43,8.19Zm-1.7,15.1a4.92,4.92,0,0,1-5.4,2.62,7.43,7.43,0,0,0-2.66,0,4.92,4.92,0,0,1-5.4-2.62C6.6,19.58,4.33,12.87,7.9,9.68c1.29-1.14,4.83-.45,6.76.26a1,1,0,0,0,.69,0c1.29-.48,5.3-1.55,6.75-.26C25.67,12.87,23.4,19.58,21.73,23.29Z"/><path class="cls-1" d="M15,7a1,1,0,0,0,1-1,2,2,0,0,1,2-2,1,1,0,0,0,0-2,4,4,0,0,0-4,4A1,1,0,0,0,15,7Z"/></svg>