<svg xmlns="http://www.w3.org/2000/svg" viewBox="0 0 30 30"><defs><style>.cls-1{fill:#333;}</style></defs><title>IT-management_BOLD</title><g id="Layer_1" data-name="Layer 1"><path class="cls-1" d="M25,3H18a3,3,0,0,0-2.82,2h-.6A5,5,0,0,0,5,6.63a4,4,0,0,0,0,7.73V21.7L3.17,24.45A1,1,0,0,0,3,25v2a1,1,0,0,0,1,1H24a1,1,0,0,0,1-1V25h2a1,1,0,0,0,1-1V6A3,3,0,0,0,25,3ZM7,14a1,1,0,0,1,1-1H20a1,1,0,0,1,1,1v7H7ZM4,10.5a2,2,0,0,1,2-2h.15a.74.74,0,0,0,.14,0l.18-.06.18-.13a.43.43,0,0,0,.1-.09.78.78,0,0,0,.16-.24l0-.06A.84.84,0,0,0,7,7.52v0H7s0-.07,0-.11S7,7.13,7,7a3,3,0,0,1,5.9-.75.15.15,0,0,1,0,.07L13,6.5a.72.72,0,0,0,.11.15.86.86,0,0,0,.14.13l.15.1L13.6,7l.19,0,.08,0H15v4H8a3,3,0,0,0-2.54,1.42A2,2,0,0,1,4,10.5ZM23,26H5v-.7L6.54,23H21.46L23,25.3Zm3-3H24l-.12,0L23,21.7V14a3,3,0,0,0-3-3H17V6a1,1,0,0,1,1-1h7a1,1,0,0,1,1,1Z"/><polygon class="cls-1" points="9 15 9 19 19 19 19 17.4 19 15 14 15 9 15"/><path class="cls-1" d="M23,7H20a1,1,0,0,0,0,2h3a1,1,0,0,0,0-2Z"/></g></svg>