<?xml version="1.0" encoding="UTF-8"?>
<svg xmlns="http://www.w3.org/2000/svg" viewBox="0 0 30 30"><path fill="none" d="M0 0h30v30H0z"/><g fill="#333" data-name="Layer 1"><path d="M26 14h-6a1 1 0 0 0 0 2v9a3 3 0 0 0 6 0v-9a1 1 0 0 0 0-2zm-3 12a1 1 0 0 1-1-1v-2h2v2a1 1 0 0 1-1 1zm1-5h-2v-5h2z" style="fill: #333333;"/><path d="M18.29 10.71a1 1 0 0 0 1.42 0 1 1 0 0 0 0-1.42l-1.8-1.79 3.38-3.38a.43.43 0 0 1 .71.29V11a1 1 0 0 0 2 0V4.41a2.41 2.41 0 0 0-4.12-1.7L16.5 6.09l-1.79-1.8a1 1 0 0 0-1.42 1.42l.38.38-1.08 1.08-.88-.88A1 1 0 0 0 11 6H6a1 1 0 0 0-1 1v2.87a4.06 4.06 0 0 0-1.81 6.8L5 18.47V26H3a1 1 0 0 0 0 2h13a1 1 0 0 0 0-2H7v-5.53l.34.34a4.07 4.07 0 0 0 5.75 0 4 4 0 0 0 1.11-2.08l1.18-5.86.38.38a1 1 0 0 0 1.42 0 1 1 0 0 0 0-1.42l-.38-.38 1.08-1.08zM10.59 8l.58.59L7 9.45V8zm1.09 11.39a2.07 2.07 0 0 1-2.93 0L5.36 16h7.35l-.47 2.34a2 2 0 0 1-.56 1.05zm2.07-7.72a.88.88 0 0 0-.27.51L13.11 14H4a2.07 2.07 0 0 1 .59-1.68 2 2 0 0 1 1-.56l6.16-1.24a.88.88 0 0 0 .51-.27l.26-.25L14 11.41zM15.41 10L14 8.59l1.09-1.09 1.41 1.41z" style="fill: #333333;"/></g></svg>
