<svg id="Layer_1" data-name="Layer 1" xmlns="http://www.w3.org/2000/svg" viewBox="0 0 30 30"><defs><style>.cls-1{fill:#333;}</style></defs><title>lungs_BOLD</title><path class="cls-1" d="M19,8a1,1,0,0,0-1,1v3H16V3a1,1,0,0,0-2,0v9H12V9a1,1,0,0,0-1-1C4.86,8,2,14,2,27a1,1,0,0,0,.35.76A1,1,0,0,0,3,28h.14l8-1.17a1,1,0,0,0,.86-1V14h6V25.83a1,1,0,0,0,.86,1l8,1.17H27a1,1,0,0,0,.65-.24A1,1,0,0,0,28,27C28,14,25.14,8,19,8ZM10,25l-6,.87c.2-13.38,3.84-15.46,6-15.78Zm10,0V10.06c2.15.32,5.79,2.4,6,15.78Z"/></svg>