<svg id="Layer_1" data-name="Layer 1" xmlns="http://www.w3.org/2000/svg" viewBox="0 0 30 30"><defs><style>.cls-1{fill:#333;}</style></defs><title>mesure_BOLD</title><path class="cls-1" d="M26.71,20.26,21,14.6h0L9.74,3.29a1,1,0,0,0-1.42,0l-6,6a1,1,0,0,0,0,1.41l17,17a1,1,0,0,0,1.41,0l6-6A1,1,0,0,0,26.71,20.26ZM20,25.57,4.43,10,9,5.41l1.41,1.41-.71.71a1,1,0,0,0,0,1.41,1,1,0,0,0,1.41,0l.71-.7,1.41,1.41-2.12,2.12a1,1,0,0,0,0,1.42,1,1,0,0,0,1.42,0l2.12-2.13,1.39,1.4-.7.71a1,1,0,0,0,0,1.41,1,1,0,0,0,1.41,0l.71-.71,1.43,1.44-.71.7a1,1,0,0,0,0,1.42,1,1,0,0,0,.71.29,1,1,0,0,0,.71-.29l.71-.71,1.42,1.42-2.12,2.12a1,1,0,0,0,.7,1.71,1,1,0,0,0,.71-.29l2.12-2.12L24.59,21Z"/></svg>