<svg id="Layer_1" data-name="Layer 1" xmlns="http://www.w3.org/2000/svg" viewBox="0 0 30 30"><defs><style>.cls-1{fill:#333;}</style></defs><title>medicine_BOLD</title><path class="cls-1" d="M26.93,16.08a3.69,3.69,0,0,0-5.19,0l-.74.74V11.67a1,1,0,0,0-.55-.9L17,9.05V8h1a1,1,0,0,0,1-1V3a1,1,0,0,0-1-1H6A1,1,0,0,0,5,3V7A1,1,0,0,0,6,8H7V9.05L3.55,10.77a1,1,0,0,0-.55.9V27a1,1,0,0,0,1,1H18.35a.7.7,0,0,0,.14,0l.18,0a3.66,3.66,0,0,0,2.59-1.07l5.67-5.65A3.64,3.64,0,0,0,28,18.68,3.68,3.68,0,0,0,26.93,16.08ZM7,4H17V6H7ZM5,15h7v6H5Zm0,8h8a1,1,0,0,0,1-1V14a1,1,0,0,0-1-1H5v-.72l3.45-1.72A1,1,0,0,0,9,9.67V8h6V9.67a1,1,0,0,0,.55.89L19,12.28v6.54l-.09.09h0l-2.82,2.83A3.61,3.61,0,0,0,15,24.33,3.69,3.69,0,0,0,15.42,26H5Zm14.85,2.5a1.66,1.66,0,0,1-2.36,0A1.62,1.62,0,0,1,17,24.33a1.64,1.64,0,0,1,.49-1.18L19.61,21,22,23.39Zm5.66-5.65L23.39,22,21,19.62l2.12-2.12A1.71,1.71,0,0,1,24.33,17a1.67,1.67,0,0,1,1.18.49A1.64,1.64,0,0,1,26,18.68,1.62,1.62,0,0,1,25.51,19.85Z"/></svg>