<svg id="Layer_1" data-name="Layer 1" xmlns="http://www.w3.org/2000/svg" viewBox="0 0 30 30"><defs><style>.cls-1{fill:#333;}</style></defs><title>medicine-book_BOLD</title><path class="cls-1" d="M24,8c-.73,0-1-1.21-1-2,0-1,.39-2,1-2a1,1,0,0,0,0-2H8.73A3.87,3.87,0,0,0,5,6V25a3,3,0,0,0,3,3H24a1,1,0,0,0,1-1V9A1,1,0,0,0,24,8ZM8.73,4H21.36A5.51,5.51,0,0,0,21,6a5.49,5.49,0,0,0,.35,2H8.73A1.88,1.88,0,0,1,7,6,1.88,1.88,0,0,1,8.73,4ZM8,26a1,1,0,0,1-1-1V9.52A3.43,3.43,0,0,0,8.73,10H23V26Z"/><path class="cls-1" d="M18,13a1,1,0,0,0-1,1v3H13V14a1,1,0,0,0-2,0v8a1,1,0,0,0,2,0V19h4v3a1,1,0,0,0,2,0V14A1,1,0,0,0,18,13Z"/></svg>