<svg id="Layer_1" data-name="Layer 1" xmlns="http://www.w3.org/2000/svg" viewBox="0 0 30 30"><defs><style>.cls-1{fill:#333;}</style></defs><title>microscope_BOLD</title><path class="cls-1" d="M23,18.49a9.12,9.12,0,0,0-3.07-7l1.78-1.78a1,1,0,0,0,0-1.42l-3-3a1,1,0,0,0-1.42,0l-6,6a1,1,0,0,0,0,1.42l.8.79-.8.79a1,1,0,0,0,0,1.42,1,1,0,0,0,1.42,0l.79-.8.79.8a1,1,0,0,0,1.42,0l2.8-2.81A7.15,7.15,0,0,1,21,18.49C21,22.63,17.38,26,12.92,26H10V24h2a1,1,0,0,0,0-2H6a1,1,0,0,0,0,2H8v2H6a1,1,0,0,0,0,2H22a1,1,0,0,0,0-2H19.08A9.32,9.32,0,0,0,23,18.49Zm-8-4.9L13.41,12,18,7.41,19.59,9Z"/><path class="cls-1" d="M24.71,5.29l-3-3a1,1,0,0,0-1.42,1.42l3,3a1,1,0,0,0,1.42,0A1,1,0,0,0,24.71,5.29Z"/></svg>