<svg xmlns="http://www.w3.org/2000/svg" viewBox="0 0 30 30"><g data-name="Layer 1"><path fill="#333" d="M17.12 4.71A9.57 9.57 0 0 1 21.25 8h.38a3 3 0 0 1 .5-2.11A11.51 11.51 0 0 0 13.79 2h-.58a11.49 11.49 0 0 0-.71 23v-2.49A9 9 0 0 1 10.45 18h2.05v-2h-2.36a22.39 22.39 0 0 1 0-5h6.73c0 .17 0 .34.05.52a4 4 0 0 1 1.69.59 2.6 2.6 0 0 1 .36.25 20.29 20.29 0 0 0-.26-2.68 14.9 14.9 0 0 0-1.59-4.97zm-7.24 0A14.66 14.66 0 0 0 8.41 9H5.14a9.57 9.57 0 0 1 4.74-4.29zm0 17.58A9.66 9.66 0 0 1 5.12 18h3.29a14.1 14.1 0 0 0 1.47 4.29zM8.12 16H4.34a9.36 9.36 0 0 1 0-5h3.78C8 11.8 8 12.64 8 13.5s0 1.7.12 2.5zm2.33-7c.69-3.17 2-5 3.05-5s2.37 1.83 3.05 5z"/><path fill="#333" d="M16.5 13a2 2 0 0 0-2 2v12a1 1 0 0 0 1 1h2a1 1 0 0 0 1-1V15a2 2 0 0 0-2-2zM25.38 7a1 1 0 0 0-1.56 1.26A10.49 10.49 0 0 1 26 14.82a10.45 10.45 0 0 1-2.16 6.54 1 1 0 0 0-.22.63 1 1 0 0 0 1 1 1 1 0 0 0 .81-.42A12.46 12.46 0 0 0 28 14.82 12.54 12.54 0 0 0 25.38 7z"/><path fill="#333" d="M22.12 10.3a1 1 0 0 0-1.44 1.4 4.78 4.78 0 0 1 0 6.6 1 1 0 0 0 1.44 1.4 6.81 6.81 0 0 0 0-9.4z"/><path fill="none" d="M0 0h30v30H0z"/></g></svg>