<svg id="Layer_1" data-name="Layer 1" xmlns="http://www.w3.org/2000/svg" viewBox="0 0 30 30"><defs><style>.cls-1{fill:#333;}</style></defs><title>oxygen-tank_BOLD</title><path class="cls-1" d="M27.88,17.69,26.5,12.58a3.66,3.66,0,0,0-7,0l-1.38,5.11a3.27,3.27,0,0,0,.58,2.89A3.62,3.62,0,0,0,21.62,22H22v1a3,3,0,0,1-6,0V7a1,1,0,0,0-1-1H8V5h.5a1,1,0,0,0,0-2h-3a1,1,0,0,0,0,2H6V6H5A1,1,0,0,0,5,8H6V9.1A5,5,0,0,0,2,14V27a1,1,0,0,0,1,1h8a1,1,0,0,0,1-1V14A5,5,0,0,0,8,9.1V8h6V23a5,5,0,0,0,10,0V22h.38a3.62,3.62,0,0,0,2.92-1.42A3.27,3.27,0,0,0,27.88,17.69ZM10,14V26H4V14a3,3,0,0,1,6,0Zm15.72,5.37a1.67,1.67,0,0,1-1.34.63H24V18.61a1.5,1.5,0,1,0-2,0V20h-.38a1.67,1.67,0,0,1-1.34-.63,1.31,1.31,0,0,1-.23-1.16l1.38-5.1a1.67,1.67,0,0,1,3.14,0L26,18.21A1.31,1.31,0,0,1,25.72,19.37Z"/></svg>