<svg id="Layer_1" data-name="Layer 1" xmlns="http://www.w3.org/2000/svg" viewBox="0 0 30 30"><defs><style>.cls-1{fill:#333;}</style></defs><title>plug-in_BOLD</title><path class="cls-1" d="M26.71,3.29a1,1,0,0,0-1.42,0L23.59,5H19.5a1,1,0,0,0-.71.29l-4.5,4.5a1,1,0,0,0,0,1.42l4.5,4.5a1,1,0,0,0,1.42,0l4.5-4.5A1,1,0,0,0,25,10.5V6.41l1.71-1.7A1,1,0,0,0,26.71,3.29ZM23,10.09l-3.5,3.5L16.41,10.5,19.91,7H23Z"/><path class="cls-1" d="M15.29,15.29l-1.54,1.55-.59-.59,1.55-1.54a1,1,0,0,0-1.42-1.42l-1.54,1.55-.54-.55a1,1,0,0,0-1.42,0l-4.5,4.5A1,1,0,0,0,5,19.5v4.09l-1.71,1.7a1,1,0,0,0,0,1.42,1,1,0,0,0,1.42,0L6.41,25H10.5a1,1,0,0,0,.71-.29l4.5-4.5a1,1,0,0,0,0-1.42l-.55-.54,1.55-1.54a1,1,0,0,0-1.42-1.42ZM10.09,23H7V19.91l3.5-3.5,3.09,3.09Z"/></svg>