<svg xmlns="http://www.w3.org/2000/svg" viewBox="0 0 30 30"><path fill="#333" d="M23.7 11.29A3 3 0 0 0 24 10a3 3 0 0 0-1.71-2.7 2.94 2.94 0 0 0-.75-2.92 3.06 3.06 0 0 0-2.88-.75 3 3 0 0 0-5.36.08A3 3 0 0 0 11 4a3 3 0 0 0-4.31 3.32A3 3 0 0 0 6 12.24l2 14.89A1 1 0 0 0 9 28h12a1 1 0 0 0 1-.87l2-15a1 1 0 0 0-.24-.79zM19.07 26l.87-13h1.92l-1.74 13zM16 26V13h1.93l-.87 13zm-3 0l-.9-13H14v13zm-3.12 0L8.14 13h1.92L11 26zm-1-20.12a1 1 0 0 1 1.41 0 1 1 0 0 0 .75.28 1 1 0 0 0 .75-.28 1 1 0 0 1 1.42 0 1 1 0 0 1 0 1.41 1 1 0 0 0 1.41 1.42A3 3 0 0 0 15 5a1 1 0 0 1 2 0 1.06 1.06 0 0 0 .29.75 1 1 0 0 0 1.42 0 1 1 0 0 1 1.41 0 1 1 0 0 1 0 1.42 1 1 0 0 0 0 1.41A1.23 1.23 0 0 0 21 9a1 1 0 0 1 0 2h-2.48a.72.72 0 0 1 .2-.29 1 1 0 0 0-1.42-1.42 3 3 0 0 0-.85 1.71H8a1 1 0 0 1 0-2h.17a1 1 0 0 0 .71-.29 1 1 0 0 0 0-1.42 1 1 0 0 1 0-1.41z" data-name="Layer 1"/></svg>