<svg id="Layer_1" data-name="Layer 1" xmlns="http://www.w3.org/2000/svg" viewBox="0 0 30 30"><defs><style>.cls-1{fill:#333;}</style></defs><title>puls_BOLD</title><path class="cls-1" d="M20.82,4a7.08,7.08,0,0,0-5.05,2.11L15,6.87l-.75-.74A7,7,0,0,0,9.18,4,7.14,7.14,0,0,0,2,11.09a6.92,6.92,0,0,0,2.14,5l9.51,9.36a1.91,1.91,0,0,0,2.7,0l9.51-9.36a6.92,6.92,0,0,0,2.14-5A7.14,7.14,0,0,0,20.82,4Zm3.63,10.65L15,24,7.93,17H10.5a1,1,0,0,0,.93-.63l1-2.39,1.67,5.32a1,1,0,0,0,.87.7H15a1,1,0,0,0,.89-.55L17.12,17H19.5a1,1,0,0,0,0-2h-3a1,1,0,0,0-.89.55l-.4.78L13.45,10.7a1,1,0,0,0-1.88-.07L9.82,15H5.9l-.35-.35A4.85,4.85,0,0,1,4,11.09,5.14,5.14,0,0,1,9.18,6a4.88,4.88,0,0,1,3.64,1.53L14.3,9a1,1,0,0,0,1.4,0l1.48-1.46A5.05,5.05,0,0,1,20.82,6,5.14,5.14,0,0,1,26,11.09,4.85,4.85,0,0,1,24.45,14.65Z"/></svg>