<svg xmlns="http://www.w3.org/2000/svg" viewBox="0 0 30 30"><g fill="#333" data-name="Layer 1"><path d="M26.5 27v-1a10.38 10.38 0 0 0-1.26-5 6 6 0 0 0-5-10.76 13.2 13.2 0 0 0-3.85-4.21A11.8 11.8 0 0 0 9.6 4H8.52l.14 1.07A11.31 11.31 0 0 0 10 8.85a11.42 11.42 0 0 0-4.5.73l-1 .42.5 1a11.63 11.63 0 0 0 5.22 4.75 12.59 12.59 0 0 0 1.66.62 10.55 10.55 0 0 0-5.68 5.9A2.85 2.85 0 0 0 5 22a3 3 0 0 0 0 6h1.5a1 1 0 0 0 1-1v-1a4 4 0 0 1 8 0v1a1 1 0 0 0 2 0v-1a6 6 0 0 0-7.76-5.74A8.49 8.49 0 0 1 16 17.5h.2A6 6 0 0 0 22 22a5.9 5.9 0 0 0 1.4-.17A8.4 8.4 0 0 1 24.5 26v1a1 1 0 0 0 2 0zM4 25a1 1 0 0 1 1.66-.74 8.5 8.5 0 0 0-.13 1.13 6.08 6.08 0 0 0 0 .61H5a1 1 0 0 1-1-1zM15.2 7.71a11.23 11.23 0 0 1 3.21 3.49 6.08 6.08 0 0 0-1.21 1.22 11.3 11.3 0 0 1-3.86-2.48l-.3-.3-.13-.15c-.06-.07-.13-.14-.19-.22A10 10 0 0 1 11 6.07a9.85 9.85 0 0 1 4.2 1.64zm-7.68 3.36a10 10 0 0 1 4.12 0l.29.3a13.72 13.72 0 0 0 4.34 2.85c-.06.22-.12.44-.16.66a11.16 11.16 0 0 1-5-1 9.79 9.79 0 0 1-3.59-2.81zM18 16a4 4 0 1 1 4 4 4 4 0 0 1-4-4z"/><circle cx="23" cy="15" r="1"/></g></svg>