<?xml version="1.0" encoding="UTF-8"?>
<svg xmlns="http://www.w3.org/2000/svg" viewBox="0 0 30 30"><path fill="none" d="M0 0h30v30H0z"/><g fill="#333" data-name="Layer 1"><path d="M27 2H3a1 1 0 0 0-1 1v24a1 1 0 0 0 1 1h24a1 1 0 0 0 1-1V3a1 1 0 0 0-1-1zM12 4v4a1 1 0 0 0 1 1 1 1 0 0 1 .82.43A1 1 0 0 1 12.9 11a1.37 1.37 0 0 1-.57-.14 2.66 2.66 0 0 0-2.67 0 1.27 1.27 0 0 1-.56.14 1 1 0 0 1-1-.62 1 1 0 0 1 .11-1A1 1 0 0 1 9 9a1 1 0 0 0 1-1V4zM8.41 17.81A1 1 0 0 1 9 16h4a1 1 0 0 1 .59 1.81A3.65 3.65 0 0 0 12 20.74V26h-2v-5.26a3.65 3.65 0 0 0-1.59-2.93zM26 26H14v-5.26a1.7 1.7 0 0 1 .77-1.32A3 3 0 0 0 13 14H9a3 3 0 0 0-1.77 5.42A1.7 1.7 0 0 1 8 20.74V26H4V4h4v3.17A3 3 0 0 0 9.19 13a3.19 3.19 0 0 0 1.47-.41.69.69 0 0 1 .68 0 3.19 3.19 0 0 0 1.47.41H13a3 3 0 0 0 1-5.83V4h12z" style="fill: #333333;"/><path d="M18 8h5a1 1 0 0 0 0-2h-5a1 1 0 0 0 0 2zM18 24h5a1 1 0 0 0 0-2h-5a1 1 0 0 0 0 2zM23 9h-3a1 1 0 0 0 0 2h3a1 1 0 0 0 0-2z" style="fill: #333333;"/></g></svg>
