<?xml version="1.0" encoding="UTF-8"?>
<svg xmlns="http://www.w3.org/2000/svg" viewBox="0 0 30 30"><path fill="none" d="M0 0h30v30H0z"/><path fill="#333" d="M27.71 7.65l-5.36-5.36a1 1 0 0 0-1.42 1.42l2 2-2.65 2.6-2-2a1 1 0 0 0-1.41 0L5.07 18.07a3.62 3.62 0 0 0 0 5.12l.16.16-2.94 2.94a1 1 0 0 0 0 1.42 1 1 0 0 0 1.42 0l2.94-2.94.16.16a3.62 3.62 0 0 0 5.12 0l11.78-11.78a1 1 0 0 0 .29-.71 1 1 0 0 0-.29-.7l-2-2 2.63-2.63 2 2a1 1 0 0 0 1.42 0 1 1 0 0 0-.05-1.46zm-17.2 15.87a1.62 1.62 0 0 1-2.29 0l-1.74-1.74A1.65 1.65 0 0 1 6 20.63a1.61 1.61 0 0 1 .47-1.14L7 19h8zM17 17H9l2.81-2.81 1.51 1.52a1 1 0 0 0 1.42 0 1 1 0 0 0 0-1.42l-1.52-1.51 1.59-1.59 1.51 1.52a1 1 0 0 0 1.42 0 1 1 0 0 0 0-1.42l-1.55-1.51 1.37-1.36 4 4z" data-name="Layer 1" style="fill: #333333;"/></svg>
