<?xml version="1.0" encoding="UTF-8"?>
<svg xmlns="http://www.w3.org/2000/svg" viewBox="0 0 30 30"><path fill="none" d="M0 0h30v30H0z"/><g fill="#333" data-name="Layer 1"><path d="M22.3 6.29l-9 9a1 1 0 0 0 0 1.41 1 1 0 0 0 1.41 0l9-9a1 1 0 0 0-1.41-1.41z" style="fill: #333333;"/><path d="M26.54 3.46a5 5 0 0 0-7.07 0l-7.9 8a7.65 7.65 0 0 0-2 3.76A5.49 5.49 0 0 1 8 18.08L2.89 23.2a2.87 2.87 0 0 0-.75 2.89A2.78 2.78 0 0 0 4.77 28a2.82 2.82 0 0 0 2-.81L11.91 22a5.72 5.72 0 0 1 2.82-1.54 7.57 7.57 0 0 0 3.77-2l8-7.91a5 5 0 0 0 .04-7.09zM5.31 25.77A.76.76 0 0 1 4 25.46a.88.88 0 0 1 .26-.85l1.45-1.45 1.09 1.09zM25.13 9.11l-8 7.9a5.65 5.65 0 0 1-2.8 1.51 7.73 7.73 0 0 0-3.81 2.07l-2.27 2.25-1.09-1.09 2.26-2.25a7.68 7.68 0 0 0 2.07-3.81A5.74 5.74 0 0 1 13 12.91l7.9-8a3 3 0 0 1 4.23 0 3 3 0 0 1 0 4.2z" style="fill: #333333;"/></g></svg>
