<?xml version="1.0" encoding="UTF-8"?>
<svg xmlns="http://www.w3.org/2000/svg" viewBox="0 0 30 30"><path fill="none" d="M0 0h30v30H0z"/><path fill="#333" d="M24.24 3.53C21.7 1 16.47 2.47 15 3c-1.47-.53-6.7-2-9.24.53C-1.42 10.58 7.64 26.8 8 27.49a1 1 0 0 0 1.85-.32c.82-4.5 3-11.17 5.15-11.17s4.33 6.67 5.12 11.17a1 1 0 0 0 .81.82h.17a1 1 0 0 0 .87-.51c.39-.68 9.45-16.9 2.27-23.95zM21.49 24c-1-3.9-3-10-6.49-10s-5.53 6.1-6.49 10C6.34 19.36 2.57 9.47 7.16 5c1.63-1.6 6-.56 7.51 0a.94.94 0 0 0 .66 0c1.43-.5 5.88-1.58 7.51 0 4.59 4.47.82 14.36-1.35 19z" data-name="Layer 1" style="fill: #333333;"/></svg>
