<?xml version="1.0" encoding="UTF-8"?>
<svg xmlns="http://www.w3.org/2000/svg" viewBox="0 0 30 30"><g data-name="Layer 1"><path fill="#333" d="M21 22a3 3 0 0 1-2.82-2H20a3 3 0 0 0 3-3V9a3 3 0 0 0-3-3c0-.93-.81-1.64-2-1.89V3a1 1 0 0 0-1-1H6a1 1 0 0 0-1 1v24a1 1 0 0 0 2 0V4h9v.11c-1.21.25-2 1-2 1.89a3 3 0 0 0-3 3v8a3 3 0 0 0 3 3h2.1a5 5 0 0 0 4.9 4 3 3 0 0 1 3 3 1 1 0 0 0 2 0 5 5 0 0 0-5-5zM14 8h6a1 1 0 0 1 1 1v4h-8V9a1 1 0 0 1 1-1zm-1 9v-2h8v2a1 1 0 0 1-1 1h-6a1 1 0 0 1-1-1z" style="fill: #333333;"/><path fill="none" d="M0 0h30v30H0z"/></g></svg>
