<?xml version="1.0" encoding="UTF-8"?>
<svg xmlns="http://www.w3.org/2000/svg" viewBox="0 0 30 30"><g data-name="Layer 1"><path fill="#333" d="M24 3H6a3 3 0 0 0-3 3v18a3 3 0 0 0 3 3h18a3 3 0 0 0 3-3V6a3 3 0 0 0-3-3zm1 21a1 1 0 0 1-1 1H6a1 1 0 0 1-1-1V6a1 1 0 0 1 1-1h18a1 1 0 0 1 1 1z" style="fill: #333333;"/><path fill="#333" d="M22.27 7A26.05 26.05 0 0 0 7.73 7 1 1 0 0 0 7 8.14l1 7a1 1 0 0 0 .46.71 1 1 0 0 0 .85.1 17.54 17.54 0 0 1 11.36 0A1.19 1.19 0 0 0 21 16a1 1 0 0 0 .53-.15 1 1 0 0 0 .46-.71l1-7A1 1 0 0 0 22.27 7zm-2.1 6.67a17.24 17.24 0 0 0-2.11-.45l.9-3A1 1 0 1 0 17 9.71L16 13h-1a19.47 19.47 0 0 0-5.17.71l-.71-5a23.89 23.89 0 0 1 11.76 0z" style="fill: #333333;"/><path fill="none" d="M0 0h30v30H0z"/></g></svg>
