<?xml version="1.0" encoding="UTF-8"?>
<svg xmlns="http://www.w3.org/2000/svg" viewBox="0 0 30 30"><g data-name="Layer 1"><path fill="#333" d="M19 28h-8a2 2 0 0 1-2-2V13a3 3 0 0 1 3-3h6a3 3 0 0 1 3 3v13a2 2 0 0 1-2 2zm-7-16a1 1 0 0 0-1 1v13h8V13a1 1 0 0 0-1-1zM20.5 6a1 1 0 0 1-.66-.25A7.32 7.32 0 0 0 15 4a7.32 7.32 0 0 0-4.84 1.75 1 1 0 0 1-1.32-1.5A9.34 9.34 0 0 1 15 2a9.34 9.34 0 0 1 6.16 2.25A1 1 0 0 1 20.5 6z" style="fill: #333333;"/><path fill="#333" d="M18 9a1 1 0 0 1-.7-.29A3.4 3.4 0 0 0 15 8a3.4 3.4 0 0 0-2.3.71 1 1 0 0 1-1.4-1.42A5.35 5.35 0 0 1 15 6a5.35 5.35 0 0 1 3.7 1.29 1 1 0 0 1 0 1.41 1 1 0 0 1-.7.3zM15 19a3 3 0 1 1 3-3 3 3 0 0 1-3 3zm0-4a1 1 0 1 0 1 1 1 1 0 0 0-1-1z" style="fill: #333333;"/><path fill="none" d="M0 0h30v30H0z"/><circle cx="16.5" cy="20.5" r="1" fill="#333" style="fill: #333333;"/><circle cx="16.5" cy="23.5" r="1" fill="#333" style="fill: #333333;"/><circle cx="13.5" cy="23.5" r="1" fill="#333" style="fill: #333333;"/><circle cx="13.5" cy="20.5" r="1" fill="#333" style="fill: #333333;"/></g></svg>
