<?xml version="1.0" encoding="UTF-8"?>
<svg xmlns="http://www.w3.org/2000/svg" viewBox="0 0 30 30"><g fill="#333" data-name="Layer 1"><path d="M26.5 14.52a3.86 3.86 0 0 0-1-2.63 3.54 3.54 0 0 0 .07-.73 3.88 3.88 0 0 0-2.47-3.61 3.84 3.84 0 0 0 .06-.71 3.4 3.4 0 0 0-.68-2C22.06 4.24 19.85 2 17.39 2A3.38 3.38 0 0 0 15 3a3.38 3.38 0 0 0-2.39-1c-2.46 0-4.67 2.24-5.09 2.8a3.4 3.4 0 0 0-.68 2 3.84 3.84 0 0 0 .06.71 3.88 3.88 0 0 0-2.44 3.61 3.54 3.54 0 0 0 .07.73 3.86 3.86 0 0 0-1 2.63 3.92 3.92 0 0 0 .07.68 1.77 1.77 0 0 0 0 .2 3.74 3.74 0 0 0 .17.54c0 .09.08.18.12.27s.07.15.11.23a3.86 3.86 0 0 0 1.43 5.27 4.15 4.15 0 0 0 0 .49 3.86 3.86 0 0 0 2.5 3.62 4.29 4.29 0 0 0 7.09.56 4.29 4.29 0 0 0 7.09-.56 3.86 3.86 0 0 0 2.5-3.62 4.15 4.15 0 0 0 0-.49A3.86 3.86 0 0 0 26 16.44a3.88 3.88 0 0 0 .5-1.92zM11.66 26a2.35 2.35 0 0 1-2.15-1.41 1 1 0 0 0-.68-.59 1.86 1.86 0 0 1-1.43-1.8 1.94 1.94 0 0 1 .14-.7 1.06 1.06 0 0 0 0-.82 1 1 0 0 0-.64-.52 1.87 1.87 0 0 1-1.38-1.8 2 2 0 0 1 0-.44 3.77 3.77 0 0 0 1.82.48 1 1 0 0 0 0-2A1.86 1.86 0 0 1 6 15.78a1.82 1.82 0 0 1-.44-.78v-.09a2.58 2.58 0 0 1 0-.4A1.87 1.87 0 0 1 6.25 13a1 1 0 0 0 .33-1.17 1.87 1.87 0 1 1 3.61-.69 1 1 0 1 0 2 0 3.87 3.87 0 0 0-3.3-3.8 1.87 1.87 0 0 1-.06-.5A1.39 1.39 0 0 1 9.11 6a5.74 5.74 0 0 1 3.5-2A1.39 1.39 0 0 1 14 5.24a2.7 2.7 0 0 0-.9-.16 1 1 0 0 0 0 2A.92.92 0 0 1 14 8v15.5a2.48 2.48 0 0 1-2.34 2.5zM24 17.11a1.83 1.83 0 0 1 .49 1.25 1.87 1.87 0 0 1-1.38 1.8 1 1 0 0 0-.64.52 1.06 1.06 0 0 0 0 .82 1.94 1.94 0 0 1 .14.7 1.86 1.86 0 0 1-1.44 1.8 1 1 0 0 0-.68.57 2.35 2.35 0 0 1-4.5-.95V22a.92.92 0 0 1 .92-.92 1 1 0 0 0 0-2 3.12 3.12 0 0 0-.92.16V9.5a.92.92 0 0 1 .92-.92 1 1 0 0 0 0-2 3.12 3.12 0 0 0-.92.16V5.4a1.4 1.4 0 0 1 1.4-1.4 5.74 5.74 0 0 1 3.5 2 1.39 1.39 0 0 1 .28.84 1.87 1.87 0 0 1-.06.5 3.87 3.87 0 0 0-3.28 3.82 1 1 0 1 0 2 0 1.88 1.88 0 1 1 3.61.69 1 1 0 0 0 .31 1.15 1.87 1.87 0 0 1 .76 1.5 1.83 1.83 0 0 1-.51 1.27 1 1 0 0 0 0 1.34z" style="fill: #333333;"/><path d="M11.18 14h-.48a.92.92 0 0 1-.91-.92 1 1 0 1 0-2 0A2.91 2.91 0 0 0 10.7 16h.48a1 1 0 0 0 0-2zM21.21 12.08a1 1 0 0 0-1 1 .92.92 0 0 1-.91.92h-.48a1 1 0 0 0 0 2h.48a2.91 2.91 0 0 0 2.9-2.92 1 1 0 0 0-.99-1zM11.92 21.65a1.89 1.89 0 0 1-.35-2.94 1 1 0 0 0-1.41-1.41 3.89 3.89 0 0 0 .71 6.05 1 1 0 0 0 .52.15 1 1 0 0 0 .85-.48 1 1 0 0 0-.32-1.37zM18.82 17.31a1 1 0 0 0 0 1.41 1.9 1.9 0 0 1-.35 2.94 1 1 0 0 0 .53 1.85 1 1 0 0 0 .52-.15 3.89 3.89 0 0 0 .71-6.05 1 1 0 0 0-1.41 0z" style="fill: #333333;"/></g></svg>
