<svg xmlns="http://www.w3.org/2000/svg" viewBox="0 0 30 30"><g fill="#333"><path d="M11 10H5a3 3 0 0 0-3 3v13a2 2 0 0 0 2 2h8a2 2 0 0 0 2-2V13a3 3 0 0 0-3-3zm1 16H4V13a1 1 0 0 1 1-1h6a1 1 0 0 1 1 1v13z"/><path d="M8 13a3 3 0 1 0 0 6 3 3 0 0 0 0-6zm0 4a1 1 0 1 1 0-2 1 1 0 0 1 0 2z"/><circle cx="9.5" cy="20.5" r="1"/><circle cx="9.5" cy="23.5" r="1"/><circle cx="6.5" cy="23.5" r="1"/><circle cx="6.5" cy="20.5" r="1"/><circle cx="24" cy="22" r="1"/><circle cx="19" cy="8" r="1"/><circle cx="19" cy="11" r="1"/><path d="M9 6a1 1 0 0 1 1-1h11a1 1 0 0 1 1 1v9h2V6a3 3 0 0 0-3-3H10a3 3 0 0 0-3 3v3h2V6zM25 16H15v2h10c.551 0 1 .449 1 1v6c0 .551-.449 1-1 1H15c0 .771-.3 1.468-.78 2H25a3 3 0 0 0 3-3v-6a3 3 0 0 0-3-3z"/></g><path fill="none" d="M0 0h30v30H0V0z"/></svg>