<?xml version="1.0" encoding="UTF-8"?>
<svg xmlns="http://www.w3.org/2000/svg" viewBox="0 0 30 30"><path fill="#333" d="M7 3v4H3V3h4m1-2H2c-.6 0-1 .4-1 1v6c0 .6.4 1 1 1h6c.6 0 1-.4 1-1V2c0-.6-.4-1-1-1zM17 3v4h-4V3h4m1-2h-6c-.6 0-1 .4-1 1v6c0 .6.4 1 1 1h6c.6 0 1-.4 1-1V2c0-.6-.4-1-1-1zM27 3v4h-4V3h4m1-2h-6c-.6 0-1 .4-1 1v6c0 .6.4 1 1 1h6c.6 0 1-.4 1-1V2c0-.6-.4-1-1-1zM7 13v4H3v-4h4m1-2H2c-.6 0-1 .4-1 1v6c0 .6.4 1 1 1h6c.6 0 1-.4 1-1v-6c0-.6-.4-1-1-1zM17 13v4h-4v-4h4m1-2h-6c-.6 0-1 .4-1 1v6c0 .6.4 1 1 1h6c.6 0 1-.4 1-1v-6c0-.6-.4-1-1-1zM27 13v4h-4v-4h4m1-2h-6c-.6 0-1 .4-1 1v6c0 .6.4 1 1 1h6c.6 0 1-.4 1-1v-6c0-.6-.4-1-1-1zM7 23v4H3v-4h4m1-2H2c-.6 0-1 .4-1 1v6c0 .6.4 1 1 1h6c.6 0 1-.4 1-1v-6c0-.6-.4-1-1-1zM17 23v4h-4v-4h4m1-2h-6c-.6 0-1 .4-1 1v6c0 .6.4 1 1 1h6c.6 0 1-.4 1-1v-6c0-.6-.4-1-1-1zM27 23v4h-4v-4h4m1-2h-6c-.6 0-1 .4-1 1v6c0 .6.4 1 1 1h6c.6 0 1-.4 1-1v-6c0-.6-.4-1-1-1z" style="fill: #333333;"/></svg>
