<?xml version="1.0" encoding="UTF-8"?>
<svg xmlns="http://www.w3.org/2000/svg" viewBox="0 0 30 30"><g fill="#333" data-name="Ebene 1"><path d="M15 13a1.003 1.003 0 0 0-1-1H7.5a1 1 0 0 0 0 2H14a1.003 1.003 0 0 0 1-1zM16.5 9a1.003 1.003 0 0 0-1-1h-8a1 1 0 0 0 0 2h8a1.003 1.003 0 0 0 1-1z" style="fill: #333333;"/><path d="M19 25.061V26H4V8a3.999 3.999 0 0 1 4-4h11v6.635l1.832-1.832c.052-.052.114-.09.168-.138V3a1.003 1.003 0 0 0-1-1H8a6.005 6.005 0 0 0-6 6v19a1.003 1.003 0 0 0 1 1h17a1.003 1.003 0 0 0 1-1v-3.432l-.588.588a3.994 3.994 0 0 1-1.412.905z" style="fill: #333333;"/><path d="M9.72 22l-.771-2.316a1 1 0 0 0-1.656-.391l-2 2a1 1 0 0 0 1.414 1.414l.856-.856.488 1.465A1 1 0 0 0 9 24h1a1 1 0 0 0 0-2zM27.707 9.414a1.414 1.414 0 0 0-2 0l-.717.717a2 2 0 0 0-2.744.086l-7.887 7.888a2.017 2.017 0 0 0-.569 1.11L13 24.1l4.885-.79a2.008 2.008 0 0 0 1.112-.569l6.681-6.68 1.205-1.206a1.997 1.997 0 0 0 .105-2.723l.719-.719a1.414 1.414 0 0 0 0-2zM17.565 21.337l-2.145.347.35-2.153 1.8 1.8zm1.421-1.42l-1.806-1.805 3.82-3.82 1.809 1.81zm5.278-5.27l-.04.04-1.81-1.809 1.249-1.249h.008l.011.003 1.788 1.81z" style="fill: #333333;"/></g><path fill="none" d="M0 30V0h30" data-name="Ebene 2"/></svg>
