<?xml version="1.0" encoding="UTF-8"?>
<svg xmlns="http://www.w3.org/2000/svg" viewBox="0 0 30 30"><g fill="#333"><path d="M12.3 13.9c-.8 0-1.4.7-1.4 1.6s.6 1.6 1.4 1.6c.8 0 1.4-.7 1.4-1.6.1-.9-.5-1.6-1.4-1.6zM17.7 13.9c-.8 0-1.4.7-1.4 1.6s.6 1.6 1.4 1.6c.8 0 1.4-.7 1.4-1.6 0-.9-.6-1.6-1.4-1.6z" style="fill: #333333;"/><path d="M15 2C7.8 2 2 7.8 2 15s5.8 13 13 13 13-5.8 13-13S22.2 2 15 2zm7.9 16.9c-1.4 1-2.7 1.7-4 2.1h-.1c-.3-.4-.6-.9-.8-1.3v-.1c.4-.2.9-.4 1.2-.6v-.1c-.1-.1-.2-.1-.2-.2h-.1c-2.6 1.2-5.4 1.2-8 0h-.1c-.1.1-.2.1-.2.2v.1l1.2.6v.1c-.2.5-.5.9-.8 1.3h-.1c-1.3-.4-2.6-1-4-2-.3-3 .3-6 2.4-9.1 1-.5 2.1-.8 3.3-1h.1c.1.3.3.6.4.8 1.2-.2 2.4-.2 3.7 0 .1-.3.3-.6.4-.8h.1c1.1.2 2.2.5 3.3 1 1.8 2.5 2.7 5.5 2.3 9z" style="fill: #333333;"/></g></svg>
